<svg width="24" height="24" viewBox="0 0 24 24" fill="none" xmlns="http://www.w3.org/2000/svg">
<path fill-rule="evenodd" clip-rule="evenodd" d="M23.8678 8C23.9545 8.3287 24 8.67119 24 9.02028V10H22H21V18H23V20H1V18H3V10H2H0V9.02028C0 8.67119 0.0454802 8.3287 0.132204 8C0.406368 6.96087 1.09272 6.0596 2.05743 5.52365L12 0L21.9426 5.52365C22.9073 6.0596 23.5936 6.96087 23.8678 8ZM5 10V18H8V10H5ZM10 10V18H14V10H10ZM16 10V18H19V10H16ZM12 2.28792L20.9713 7.27197C21.2866 7.44716 21.5425 7.70043 21.7202 8H2.27982C2.45749 7.70043 2.71336 7.44716 3.02871 7.27197L12 2.28792ZM0.00251943 24H0V22H0.00251943H0.00538954H0.00860928H0.0121776H0.0160935H0.0203559H0.0249637H0.029916H0.0352117H0.0408497H0.046829H0.0531485H0.0598073H0.0668042H0.0741383H0.0818085H0.0898137H0.0981529H0.106825H0.115829H0.125164H0.134829H0.144823H0.155144H0.165792H0.176766H0.188064H0.199686H0.211631H0.223897H0.236484H0.24939H0.262614H0.276156H0.290014H0.304187H0.318674H0.333475H0.348588H0.364012H0.379746H0.395789H0.41214H0.428797H0.445761H0.46303H0.480602H0.498477H0.516654H0.535132H0.553909H0.572984H0.592358H0.612028H0.631993H0.652253H0.672806H0.693651H0.714788H0.736215H0.757931H0.779935H0.802227H0.824805H0.847667H0.870814H0.894244H0.917955H0.941948H0.96622H0.990771H1.0156H1.04071H1.06609H1.09174H1.11767H1.14387H1.17035H1.19709H1.22411H1.25139H1.27894H1.30675H1.33483H1.36318H1.39179H1.42066H1.44979H1.47918H1.50883H1.53874H1.5689H1.59933H1.63H1.66093H1.69211H1.72355H1.75523H1.78717H1.81935H1.85178H1.88446H1.91738H1.95055H1.98396H2.01761H2.05151H2.08564H2.12002H2.15463H2.18948H2.22456H2.25988H2.29544H2.33123H2.36724H2.4035H2.43998H2.47668H2.51362H2.55078H2.58817H2.62579H2.66362H2.70168H2.73996H2.77847H2.81719H2.85613H2.89528H2.93466H2.97425H3.01405H3.05406H3.09429H3.13473H3.17538H3.21624H3.25731H3.29858H3.34006H3.38174H3.42363H3.46572H3.50801H3.5505H3.5932H3.63609H3.67918H3.72246H3.76594H3.80962H3.85349H3.89755H3.9418H3.98624H4.03087H4.07569H4.1207H4.16589H4.21127H4.25683H4.30258H4.34851H4.39461H4.4409H4.48737H4.53401H4.58083H4.62783H4.675H4.72235H4.76987H4.81755H4.86541H4.91344H4.96164H5.01001H5.05854H5.10723H5.15609H5.20512H5.2543H5.30365H5.35316H5.40282H5.45265H5.50263H5.55277H5.60306H5.6535H5.7041H5.75485H5.80575H5.8568H5.908H5.95935H6.01084H6.06248H6.11426H6.16619H6.21826H6.27047H6.32282H6.37531H6.42794H6.4807H6.5336H6.58664H6.63981H6.69311H6.74655H6.80011H6.85381H6.90763H6.96159H7.01567H7.06987H7.1242H7.17865H7.23323H7.28793H7.34274H7.39768H7.45274H7.50791H7.5632H7.6186H7.67412H7.72975H7.7855H7.84135H7.89732H7.95339H8.00957H8.06586H8.12226H8.17876H8.23536H8.29207H8.34888H8.40579H8.46279H8.5199H8.57711H8.63441H8.6918H8.7493H8.80688H8.86456H8.92233H8.98018H9.03813H9.09617H9.15429H9.2125H9.27079H9.32917H9.38763H9.44618H9.5048H9.56351H9.62229H9.68115H9.74009H9.7991H9.85819H9.91735H9.97658H10.0359H10.0953H10.1547H10.2142H10.2738H10.3335H10.3932H10.4529H10.5128H10.5727H10.6326H10.6927H10.7528H10.8129H10.8731H10.9333H10.9937H11.054H11.1144H11.1749H11.2354H11.296H11.3566H11.4173H11.478H11.5387H11.5995H11.6604H11.7213H11.7822H11.8431H11.9042H11.9652H12.0263H12.0874H12.1485H12.2097H12.271H12.3322H12.3935H12.4548H12.5161H12.5775H12.6389H12.7003H12.7618H12.8232H12.8847H12.9462H13.0078H13.0693H13.1309H13.1925H13.2541H13.3157H13.3774H13.439H13.5007H13.5623H13.624H13.6857H13.7474H13.8091H13.8708H13.9325H13.9943H14.056H14.1177H14.1794H14.2412H14.3029H14.3646H14.4263H14.488H14.5498H14.6115H14.6731H14.7348H14.7965H14.8582H14.9198H14.9815H15.0431H15.1047H15.1663H15.2279H15.2894H15.351H15.4125H15.474H15.5355H15.5969H15.6584H15.7198H15.7811H15.8425H15.9038H15.9651H16.0264H16.0876H16.1488H16.21H16.2711H16.3322H16.3932H16.4543H16.5152H16.5762H16.6371H16.6979H16.7588H16.8195H16.8803H16.9409H17.0016H17.0621H17.1227H17.1832H17.2436H17.304H17.3643H17.4246H17.4848H17.545H17.6051H17.6651H17.7251H17.785H17.8449H17.9047H17.9644H18.0241H18.0837H18.1432H18.2027H18.2621H18.3214H18.3807H18.4399H18.499H18.558H18.617H18.6759H18.7347H18.7934H18.852H18.9106H18.9691H19.0275H19.0858H19.1441H19.2022H19.2603H19.3183H19.3762H19.434H19.4917H19.5493H19.6068H19.6642H19.7216H19.7788H19.836H19.893H19.9499H20.0068H20.0635H20.1202H20.1767H20.2331H20.2895H20.3457H20.4018H20.4578H20.5137H20.5695H20.6251H20.6807H20.7361H20.7915H20.8467H20.9018H20.9567H21.0116H21.0663H21.121H21.1755H21.2298H21.2841H21.3382H21.3922H21.4461H21.4998H21.5534H21.6069H21.6602H21.7135H21.7665H21.8195H21.8723H21.925H21.9775H22.0299H22.0822H22.1343H22.1863H22.2381H22.2898H22.3413H22.3927H22.444H22.4951H22.546H22.5968H22.6475H22.698H22.7483H22.7985H22.8485H22.8984H22.9481H22.9977H23.0471H23.0963H23.1454H23.1943H23.2431H23.2917H23.3401H23.3884H23.4364H23.4844H23.5321H23.5797H23.6271H23.6743H23.7214H23.7683H23.815H23.8615H23.9078H23.954H24V24H23.954H23.9078H23.8615H23.815H23.7683H23.7214H23.6743H23.6271H23.5797H23.5321H23.4844H23.4364H23.3884H23.3401H23.2917H23.2431H23.1943H23.1454H23.0963H23.0471H22.9977H22.9481H22.8984H22.8485H22.7985H22.7483H22.698H22.6475H22.5968H22.546H22.4951H22.444H22.3927H22.3413H22.2898H22.2381H22.1863H22.1343H22.0822H22.0299H21.9775H21.925H21.8723H21.8195H21.7665H21.7135H21.6602H21.6069H21.5534H21.4998H21.4461H21.3922H21.3382H21.2841H21.2298H21.1755H21.121H21.0663H21.0116H20.9567H20.9018H20.8467H20.7915H20.7361H20.6807H20.6251H20.5695H20.5137H20.4578H20.4018H20.3457H20.2895H20.2331H20.1767H20.1202H20.0635H20.0068H19.9499H19.893H19.836H19.7788H19.7216H19.6642H19.6068H19.5493H19.4917H19.434H19.3762H19.3183H19.2603H19.2022H19.1441H19.0858H19.0275H18.9691H18.9106H18.852H18.7934H18.7347H18.6759H18.617H18.558H18.499H18.4399H18.3807H18.3214H18.2621H18.2027H18.1432H18.0837H18.0241H17.9644H17.9047H17.8449H17.785H17.7251H17.6651H17.6051H17.545H17.4848H17.4246H17.3643H17.304H17.2436H17.1832H17.1227H17.0621H17.0016H16.9409H16.8803H16.8195H16.7588H16.6979H16.6371H16.5762H16.5152H16.4543H16.3932H16.3322H16.2711H16.21H16.1488H16.0876H16.0264H15.9651H15.9038H15.8425H15.7811H15.7198H15.6584H15.5969H15.5355H15.474H15.4125H15.351H15.2894H15.2279H15.1663H15.1047H15.0431H14.9815H14.9198H14.8582H14.7965H14.7348H14.6731H14.6115H14.5498H14.488H14.4263H14.3646H14.3029H14.2412H14.1794H14.1177H14.056H13.9943H13.9325H13.8708H13.8091H13.7474H13.6857H13.624H13.5623H13.5007H13.439H13.3774H13.3157H13.2541H13.1925H13.1309H13.0693H13.0078H12.9462H12.8847H12.8232H12.7618H12.7003H12.6389H12.5775H12.5161H12.4548H12.3935H12.3322H12.271H12.2097H12.1485H12.0874H12.0263H11.9652H11.9042H11.8431H11.7822H11.7213H11.6604H11.5995H11.5387H11.478H11.4173H11.3566H11.296H11.2354H11.1749H11.1144H11.054H10.9937H10.9333H10.8731H10.8129H10.7528H10.6927H10.6326H10.5727H10.5128H10.4529H10.3932H10.3335H10.2738H10.2142H10.1547H10.0953H10.0359H9.97658H9.91735H9.85819H9.7991H9.74009H9.68115H9.62229H9.56351H9.5048H9.44618H9.38763H9.32917H9.27079H9.2125H9.15429H9.09617H9.03813H8.98018H8.92233H8.86456H8.80688H8.7493H8.6918H8.63441H8.57711H8.5199H8.46279H8.40579H8.34888H8.29207H8.23536H8.17876H8.12226H8.06586H8.00957H7.95339H7.89732H7.84135H7.7855H7.72975H7.67412H7.6186H7.5632H7.50791H7.45274H7.39768H7.34274H7.28793H7.23323H7.17865H7.1242H7.06987H7.01567H6.96159H6.90763H6.85381H6.80011H6.74655H6.69311H6.63981H6.58664H6.5336H6.4807H6.42794H6.37531H6.32282H6.27047H6.21826H6.16619H6.11426H6.06248H6.01084H5.95935H5.908H5.8568H5.80575H5.75485H5.7041H5.6535H5.60306H5.55277H5.50263H5.45265H5.40282H5.35316H5.30365H5.2543H5.20512H5.15609H5.10723H5.05854H5.01001H4.96164H4.91344H4.86541H4.81755H4.76987H4.72235H4.675H4.62783H4.58083H4.53401H4.48737H4.4409H4.39461H4.34851H4.30258H4.25683H4.21127H4.16589H4.1207H4.07569H4.03087H3.98624H3.9418H3.89755H3.85349H3.80962H3.76594H3.72246H3.67918H3.63609H3.5932H3.5505H3.50801H3.46572H3.42363H3.38174H3.34006H3.29858H3.25731H3.21624H3.17538H3.13473H3.09429H3.05406H3.01405H2.97425H2.93466H2.89528H2.85613H2.81719H2.77847H2.73996H2.70168H2.66362H2.62579H2.58817H2.55078H2.51362H2.47668H2.43998H2.4035H2.36724H2.33123H2.29544H2.25988H2.22456H2.18948H2.15463H2.12002H2.08564H2.05151H2.01761H1.98396H1.95055H1.91738H1.88446H1.85178H1.81935H1.78717H1.75523H1.72355H1.69211H1.66093H1.63H1.59933H1.5689H1.53874H1.50883H1.47918H1.44979H1.42066H1.39179H1.36318H1.33483H1.30675H1.27894H1.25139H1.22411H1.19709H1.17035H1.14387H1.11767H1.09174H1.06609H1.04071H1.0156H0.990771H0.96622H0.941948H0.917955H0.894244H0.870814H0.847667H0.824805H0.802227H0.779935H0.757931H0.736215H0.714788H0.693651H0.672806H0.652253H0.631993H0.612028H0.592358H0.572984H0.553909H0.535132H0.516654H0.498477H0.480602H0.46303H0.445761H0.428797H0.41214H0.395789H0.379746H0.364012H0.348588H0.333475H0.318674H0.304187H0.290014H0.276156H0.262614H0.24939H0.236484H0.223897H0.211631H0.199686H0.188064H0.176766H0.165792H0.155144H0.144823H0.134829H0.125164H0.115829H0.106825H0.0981529H0.0898137H0.0818085H0.0741383H0.0668042H0.0598073H0.0531485H0.046829H0.0408497H0.0352117H0.029916H0.0249637H0.0203559H0.0160935H0.0121776H0.00860928H0.00538954H0.00251943Z" fill="black"/>
</svg>
