<svg width="24" height="24" viewBox="0 0 24 24" fill="none" xmlns="http://www.w3.org/2000/svg">
<path fill-rule="evenodd" clip-rule="evenodd" d="M3 1.90382V0H5V1.90382C5 2.16622 5.05164 2.42606 5.15197 2.66853L7 7.13461L8.84803 2.66853C8.94836 2.42606 9 2.16622 9 1.90382V0H11V1.90382C11 2.42863 10.8967 2.9483 10.6961 3.43323L8.08223 9.75L10.6932 16.0599C12.5719 16.3881 14 18.0273 14 20C14 22.2091 12.2091 24 10 24C8.80531 24 7.73294 23.4762 7 22.6458C6.26705 23.4762 5.19469 24 4 24C1.79086 24 0 22.2091 0 20C0 18.0273 1.42806 16.3881 3.3068 16.0599L5.91777 9.75L3.30393 3.43323C3.10327 2.9483 3 2.42863 3 1.90382ZM5.39291 16.2492L7 12.3654L8.60709 16.2492C7.98297 16.4811 7.43242 16.8643 7 17.3542C6.56758 16.8643 6.01702 16.4811 5.39291 16.2492ZM6 20C6 18.8954 5.10457 18 4 18C2.89543 18 2 18.8954 2 20C2 21.1046 2.89543 22 4 22C5.10457 22 6 21.1046 6 20ZM8 20C8 21.1046 8.89543 22 10 22C11.1046 22 12 21.1046 12 20C12 18.8954 11.1046 18 10 18C8.89543 18 8 18.8954 8 20Z" fill="black"/>
<path d="M19 0C17.3431 0 16 1.34315 16 3V24H18V18H24V16H18V14H24V12H18V10H24V8H18V6H24V4H18V3C18 2.44772 18.4477 2 19 2H24V0H19Z" fill="black"/>
</svg>
