<svg width="24" height="24" viewBox="0 0 24 24" fill="none" xmlns="http://www.w3.org/2000/svg">
<g clip-path="url(#clip0)">
<path fill-rule="evenodd" clip-rule="evenodd" d="M11.1946 5.62272L16.8174 0H20.9527C22.6357 0 24 1.3643 24 3.04725V7.18244L18.3772 12.8052H13.7426L8.10772 20.6938C7.07783 22.1357 5.17469 22.5196 3.6985 21.738L1.43651 24L0 22.5635L2.26202 20.3015C1.48056 18.8254 1.86452 16.9224 3.30633 15.8925L11.1946 10.2581V5.62272ZM15.083 7.48073L13.2262 8.80703L13.2262 6.46419L17.6589 2.0315H20.9527C21.5137 2.0315 21.9685 2.48627 21.9685 3.04725V6.34096L17.5357 10.7737H15.1937L16.5202 8.91651L20.8296 4.60724L19.3931 3.17075L15.083 7.48073ZM11.1946 12.7546L4.48713 17.5456C3.77793 18.0522 3.69333 19.0743 4.30961 19.6906C4.92588 20.3068 5.94803 20.2222 6.4546 19.5131L11.246 12.8052H11.1946V12.7546Z" fill="black"/>
</g>
<defs>
<clipPath id="clip0">
<rect width="24" height="24" fill="white"/>
</clipPath>
</defs>
</svg>
