<svg width="24" height="24" viewBox="0 0 24 24" fill="none" xmlns="http://www.w3.org/2000/svg">
<g clip-path="url(#clip0)">
<path d="M1 8L12 22.5M1 8L4.90352 2.36158C5.27709 1.82198 5.89162 1.5 6.54791 1.5H10M1 8H8M12 22.5L23 8M12 22.5L8 8M12 22.5L16 8M23 8L19.0965 2.36158C18.7229 1.82198 18.1084 1.5 17.4521 1.5H14.25M23 8H16M10 1.5L8 8M10 1.5H14.25M8 8H16M14.25 1.5L16 8" stroke="#8638e4" stroke-width="2"/>
</g>
<defs>
<clipPath id="clip0">
<rect width="24" height="24" fill="white"/>
</clipPath>
</defs>
</svg>
