<svg width="176" height="132" viewBox="0 0 176 132" fill="none" xmlns="http://www.w3.org/2000/svg">
<path d="M150.5 32L116.5 66L117.207 66.7071L151.207 32.7071L150.5 32Z" fill="#27272F"/>
<path d="M153.898 51L135 61.9108L135.5 62.7768L154.398 51.866L153.898 51Z" fill="#27272F"/>
<path d="M71.4043 55.9043L60.4936 37.0063L61.3596 36.5063L72.2704 55.4043L71.4043 55.9043Z" fill="#27272F"/>
<path d="M28.5 69L58.4943 79.2728L58.8184 78.3268L28.824 68.0539L28.5 69Z" fill="#27272F"/>
<path d="M29 33C29 36.5899 31.9101 39.5 35.5 39.5C39.6421 39.5 43 42.8579 43 47C43 50.5899 45.9101 53.5 49.5 53.5C53.6421 53.5 57 56.8579 57 61C57 64.5899 59.9101 67.5 63.5 67.5V68.5C59.3579 68.5 56 65.1421 56 61C56 57.4101 53.0899 54.5 49.5 54.5C45.3579 54.5 42 51.1421 42 47C42 43.4101 39.0899 40.5 35.5 40.5C31.3579 40.5 28 37.1421 28 33H29Z" fill="#27272F"/>
<path d="M143.214 70.4688C145.009 67.3599 148.984 66.2947 152.093 68.0897L152.593 67.2236C149.006 65.1526 144.419 66.3816 142.348 69.9688C140.553 73.0776 136.578 74.1428 133.469 72.3479C129.882 70.2768 125.295 71.5059 123.224 75.0931L124.09 75.5931C125.885 72.4842 129.86 71.419 132.969 73.2139C136.556 75.285 141.143 74.0559 143.214 70.4688Z" fill="#27272F"/>
<path d="M136.58 46.0991L131.613 46.0991L127.281 55.5002L136.58 50.8954L136.58 46.0991Z" fill="white"/>
<path d="M89.8161 98.0002C89.8045 98.0002 89.7928 98.0002 89.7812 98.0002L89.8161 98.0002Z" fill="white"/>
<path fill-rule="evenodd" clip-rule="evenodd" d="M79.0553 64.4714C79.2227 64.9033 79.3905 65.3392 79.5522 65.7612C80.2183 67.4991 80.7812 69.0002 80.7812 69.0002L78.9086 69.7024L78.8428 69.5274C78.8001 69.4138 78.7378 69.2485 78.66 69.0423C78.5043 68.6297 78.2863 68.0536 78.0372 67.3997C77.856 66.9239 77.6588 66.4083 77.4575 65.8856C74.2417 68.8447 70.7812 72.9209 70.7812 79.0002C70.7812 87.1554 75.1518 93.4081 81.5313 96.2764C79.8198 94.3373 78.7812 91.79 78.7812 89.0002C78.7812 84.3233 82.4755 81.2018 85.6203 78.5446C86.711 77.623 87.7357 76.7572 88.5172 75.9017C89.0957 75.2684 89.541 74.6407 89.7812 74.0002C90.0214 74.6407 90.4667 75.2684 91.0453 75.9017C91.8268 76.7572 92.8514 77.623 93.9421 78.5446C97.087 81.2018 100.781 84.3233 100.781 89.0002C100.781 91.79 99.7427 94.3373 98.0311 96.2764C104.411 93.4081 108.781 87.1554 108.781 79.0002C108.781 73.5211 106.328 69.8842 102.463 66.1974C100.976 64.7791 99.3378 63.4061 97.5649 61.9206C96.9831 61.4331 96.3869 60.9336 95.7768 60.4163C93.8174 58.7548 91.764 56.9498 89.7523 54.8885C87.3186 57.6247 85.6312 60.8853 84.5132 63.6805C83.8591 65.3158 83.4133 66.7576 83.1323 67.7854C82.992 68.2986 82.8934 68.7064 82.8308 68.981C82.7995 69.1182 82.7772 69.2219 82.7633 69.2887C82.759 69.3097 82.7554 69.327 82.7527 69.3406C82.751 69.3486 82.7497 69.3553 82.7486 69.3607L82.7459 69.3744L82.7456 69.376L81.4119 76.378L78.9086 69.7024L80.7812 69.0002C80.7812 69.0002 81.0321 67.6829 81.6673 65.6927C82.699 62.4595 84.7447 57.4505 88.3758 53.4277C88.8202 52.9354 89.2883 52.4579 89.7812 52.0002C90.0881 52.3393 90.397 52.6717 90.7075 52.9978C93.3847 55.8088 96.1831 58.1534 98.8114 60.3555C105.318 65.8068 110.781 70.3844 110.781 79.0002C110.781 91.4857 101.401 99.9805 89.8216 100C89.8081 100 89.7947 100 89.7812 100C89.7678 100 89.7543 100 89.7409 100C78.1614 99.9805 68.7812 91.4857 68.7812 79.0002C68.7812 71.6952 73.2127 66.9753 76.6804 63.8883C77.1828 63.441 77.6649 63.0281 78.1104 62.6465L78.2812 62.5002C78.5198 63.0968 78.7869 63.7788 79.0553 64.4714ZM89.8161 98.0002C94.7706 97.9814 98.7812 93.9592 98.7812 89.0002C98.7812 86.1702 97.012 83.936 94.5038 81.6725C93.8947 81.1229 93.2709 80.5958 92.6402 80.0628L92.63 80.0543C92.0062 79.5272 91.3678 78.9877 90.7828 78.4524C90.4502 78.1482 90.1099 77.8239 89.7812 77.4792C89.4526 77.8239 89.1122 78.1482 88.7797 78.4524C88.1946 78.9877 87.5562 79.5272 86.9324 80.0543L86.9223 80.0628C86.2915 80.5958 85.6677 81.1229 85.0586 81.6725C82.5504 83.936 80.7812 86.1702 80.7812 89.0002C80.7812 93.9592 84.7918 97.9814 89.7464 98.0002C89.758 98.0002 89.7696 98.0002 89.7812 98.0002" fill="white"/>
<path d="M41.2469 75.1919L40 72.5103L42.6983 71.0707L47.9944 75.3972L41.2469 75.1919Z" fill="white"/>
</svg>
