<svg width="24" height="24" viewBox="0 0 24 24" fill="none" xmlns="http://www.w3.org/2000/svg">
<g clip-path="url(#clip0)">
<path fill-rule="evenodd" clip-rule="evenodd" d="M0 11.3613C0 10.4962 0.373441 9.67326 1.02449 9.1036L10.0245 1.2286C11.1556 0.238905 12.8444 0.238905 13.9755 1.2286L22.9755 9.1036C23.6266 9.67326 24 10.4962 24 11.3613V21C24 22.6569 22.6569 24 21 24H3C1.34315 24 0 22.6569 0 21V11.3613ZM22 11.3613V21C22 21.5523 21.5523 22 21 22H17V17C17 14.2386 14.7614 12 12 12C9.23858 12 7 14.2386 7 17V22H3C2.44772 22 2 21.5523 2 21V11.3613C2 11.073 2.12448 10.7986 2.3415 10.6088L11.3415 2.73375C11.7185 2.40385 12.2815 2.40385 12.6585 2.73375L21.6585 10.6088C21.8755 10.7986 22 11.073 22 11.3613ZM9 22V17C9 15.3432 10.3431 14 12 14C13.6569 14 15 15.3432 15 17V22H9Z" fill="black"/>
</g>
<defs>
<clipPath id="clip0">
<rect width="24" height="24" fill="white"/>
</clipPath>
</defs>
</svg>
