<svg width="176" height="132" viewBox="0 0 176 132" fill="none" xmlns="http://www.w3.org/2000/svg">
<path fill-rule="evenodd" clip-rule="evenodd" d="M87.5 64.2486C87.4301 64.0947 87.3523 63.9254 87.2665 63.7416C86.8028 62.7483 86.1056 61.332 85.169 59.6336C83.2966 56.2378 80.4642 51.7084 76.6246 47.1768C68.9502 38.1192 57.2035 29 41.02 29C20.5812 29 4 45.3349 4 65.5C4 85.6651 20.5812 102 41.02 102C57.2035 102 68.9502 92.8808 76.6246 83.8232C80.4642 79.2916 83.2966 74.7622 85.169 71.3664C86.1056 69.668 86.8028 68.2517 87.2665 67.2584C87.3523 67.0746 87.4301 66.9053 87.5 66.7514C87.5699 66.9053 87.6477 67.0746 87.7335 67.2584C88.1972 68.2517 88.8944 69.668 89.831 71.3664C91.7034 74.7622 94.5358 79.2916 98.3754 83.8232C106.05 92.8808 117.797 102 133.98 102C154.419 102 171 85.6651 171 65.5C171 45.3349 154.419 29 133.98 29C117.797 29 106.05 38.1192 98.3754 47.1768C94.5358 51.7084 91.7034 56.2378 89.831 59.6336C88.8944 61.332 88.1972 62.7483 87.7335 63.7416C87.6477 63.9254 87.5699 64.0947 87.5 64.2486ZM41.02 30C21.1199 30 5 45.9006 5 65.5C5 85.0994 21.1199 101 41.02 101C56.7915 101 68.2848 92.1192 75.8616 83.1768C79.6476 78.7084 82.4438 74.2378 84.2933 70.8836C85.2178 69.207 85.905 67.8108 86.3604 66.8354C86.5881 66.3476 86.7578 65.9652 86.8703 65.7056C86.9051 65.6251 86.9345 65.5564 86.9584 65.5C86.9345 65.4436 86.9051 65.3749 86.8703 65.2944C86.7578 65.0348 86.5881 64.6523 86.3604 64.1646C85.905 63.1892 85.2178 61.793 84.2933 60.1164C82.4438 56.7622 79.6476 52.2916 75.8616 47.8232C68.2848 38.8808 56.7915 30 41.02 30ZM88.1298 65.2944C88.0949 65.3749 88.0655 65.4436 88.0416 65.5C88.0655 65.5564 88.0949 65.6251 88.1298 65.7056C88.2422 65.9652 88.4119 66.3476 88.6396 66.8354C89.095 67.8108 89.7822 69.207 90.7067 70.8836C92.5563 74.2378 95.3524 78.7084 99.1384 83.1768C106.715 92.1192 118.208 101 133.98 101C153.88 101 170 85.0994 170 65.5C170 45.9006 153.88 30 133.98 30C118.208 30 106.715 38.8808 99.1384 47.8232C95.3524 52.2916 92.5563 56.7622 90.7067 60.1164C89.7822 61.793 89.095 63.1892 88.6396 64.1646C88.4119 64.6523 88.2422 65.0348 88.1298 65.2944Z" fill="#27272F"/>
<path d="M22.5 39.5C25.2614 39.5 27.5 37.2614 27.5 34.5C27.5 31.7386 25.2614 29.5 22.5 29.5C19.7386 29.5 17.5 31.7386 17.5 34.5C17.5 37.2614 19.7386 39.5 22.5 39.5Z" fill="white"/>
<path fill-rule="evenodd" clip-rule="evenodd" d="M87.5 63.1597C87.4202 63.0064 87.3352 62.8462 87.2449 62.6797C86.4602 61.2322 85.2719 59.2985 83.6571 57.36C80.4386 53.4962 75.424 49.5 68.46 49.5C59.643 49.5 52.5 56.666 52.5 65.5C52.5 74.334 59.643 81.5 68.46 81.5C75.424 81.5 80.4386 77.5038 83.6571 73.64C85.2719 71.7015 86.4602 69.7678 87.2449 68.3203C87.3352 68.1538 87.4202 67.9936 87.5 67.8403C87.5798 67.9936 87.6648 68.1538 87.7551 68.3203C88.5398 69.7678 89.7281 71.7015 91.3429 73.64C94.5614 77.5038 99.576 81.5 106.54 81.5C115.357 81.5 122.5 74.334 122.5 65.5C122.5 56.666 115.357 49.5 106.54 49.5C99.576 49.5 94.5614 53.4962 91.3429 57.36C89.7281 59.2985 88.5398 61.2322 87.7551 62.6797C87.6648 62.8462 87.5798 63.0064 87.5 63.1597ZM68.46 51.5C60.7526 51.5 54.5 57.7655 54.5 65.5C54.5 73.2345 60.7526 79.5 68.46 79.5C74.586 79.5 79.0914 75.9962 82.1204 72.36C83.6294 70.5485 84.7467 68.7322 85.4866 67.3672C85.856 66.6858 86.1298 66.1199 86.3099 65.7274C86.3485 65.6434 86.3827 65.5674 86.4127 65.5C86.3947 65.4595 86.3752 65.416 86.3541 65.3695C86.3401 65.3385 86.3253 65.3062 86.3099 65.2726C86.1298 64.8801 85.856 64.3142 85.4866 63.6328C84.7467 62.2678 83.6294 60.4515 82.1204 58.64C79.0914 55.0038 74.586 51.5 68.46 51.5ZM88.5873 65.5C88.6173 65.5674 88.6515 65.6434 88.6901 65.7274C88.8702 66.1199 89.144 66.6858 89.5134 67.3672C90.2533 68.7322 91.3706 70.5485 92.8796 72.36C95.9086 75.9962 100.414 79.5 106.54 79.5C114.247 79.5 120.5 73.2345 120.5 65.5C120.5 57.7655 114.247 51.5 106.54 51.5C100.414 51.5 95.9086 55.0038 92.8796 58.64C91.3706 60.4515 90.2533 62.2678 89.5134 63.6328C89.144 64.3142 88.8702 64.8801 88.6901 65.2726C88.6515 65.3566 88.6173 65.4326 88.5873 65.5Z" fill="white"/>
<path d="M163.5 90.5C163.5 92.1569 162.157 93.5 160.5 93.5C158.843 93.5 157.5 92.1569 157.5 90.5C157.5 88.8431 158.843 87.5 160.5 87.5C162.157 87.5 163.5 88.8431 163.5 90.5Z" fill="white"/>
</svg>
