<svg width="32" height="32" viewBox="0 0 32 32" fill="none" xmlns="http://www.w3.org/2000/svg">
<path d="M17.25 15V10H14.75V15H17.25Z" fill="black"/>
<path fill-rule="evenodd" clip-rule="evenodd" d="M17.25 1V5H20C23.3137 5 26 7.68629 26 11V20C26 25.5228 21.5228 30 16 30C10.4772 30 6 25.5228 6 20V11C6 7.68629 8.68629 5 12 5H14.75V1H17.25ZM20 7.5H12C10.067 7.5 8.5 9.067 8.5 11V20C8.5 24.1421 11.8579 27.5 16 27.5C20.1421 27.5 23.5 24.1421 23.5 20V11C23.5 9.067 21.933 7.5 20 7.5Z" fill="black"/>
</svg>
