<svg width="24" height="24" viewBox="0 0 24 24" fill="none" xmlns="http://www.w3.org/2000/svg">
<path fill-rule="evenodd" clip-rule="evenodd" d="M16.811 4.06544C16.18 1.72353 14.0413 0 11.5 0C8.46243 0 6 2.46243 6 5.5C6 5.70871 6.01162 5.9147 6.03426 6.11736C4.29168 6.54938 3 8.12384 3 10C3 12.2091 4.79086 14 7 14H11V18.1707C10.1476 18.472 9.47199 19.1476 9.17071 20H0V22H9.17071C9.58254 23.1652 10.6938 24 12 24C13.3062 24 14.4175 23.1652 14.8293 22H24V20H14.8293C14.528 19.1476 13.8524 18.472 13 18.1707V14H16C18.7614 14 21 11.7614 21 9C21 6.51472 19.1868 4.45295 16.811 4.06544ZM15.2156 5.83164L14.8799 4.58578C14.4782 3.09475 13.1144 2 11.5 2C9.567 2 8 3.567 8 5.5C8 5.63438 8.00748 5.76625 8.0219 5.89535L8.21643 7.63692L6.51552 8.0586C5.64403 8.27465 5 9.0646 5 10C5 11.1046 5.89543 12 7 12H16C17.6569 12 19 10.6569 19 9C19 7.51077 17.9129 6.2716 16.4891 6.03936L15.2156 5.83164ZM13 21C13 21.5523 12.5523 22 12 22C11.4477 22 11 21.5523 11 21C11 20.4477 11.4477 20 12 20C12.5523 20 13 20.4477 13 21Z" fill="black"/>
</svg>
