<svg width="32" height="32" viewBox="0 0 32 32" fill="none" xmlns="http://www.w3.org/2000/svg">
<path d="M28 4L3.8018 11.2595C3.43942 11.3682 3.3244 11.8244 3.59193 12.0919L7.06495 15.5649C7.26257 15.7626 7.36847 16.0339 7.357 16.3131L7 25M28 4L20.7405 28.1982C20.6318 28.5606 20.1756 28.6756 19.9081 28.4081L16.4351 24.9351C16.2374 24.7374 15.9661 24.6315 15.6869 24.643L7 25M28 4L7 25" stroke="black" stroke-width="2.5"/>
<path fill-rule="evenodd" clip-rule="evenodd" d="M29.8644 2.13574L21.9378 28.5575C21.5573 29.8258 19.9605 30.2284 19.0242 29.292L15.6287 25.8965L5.69534 26.3048L6.10356 16.3714L2.70806 12.9759C1.77172 12.0396 2.1743 10.4428 3.44263 10.0623L29.8644 2.13574ZM5.36371 12.096L7.94884 14.6811C8.39349 15.1258 8.63178 15.7362 8.60596 16.3645L8.38045 21.8519L23.6103 6.62204L5.36371 12.096ZM25.3781 8.38981L10.1482 23.6196L15.6356 23.3941C16.2639 23.3683 16.8743 23.6066 17.319 24.0513L19.9041 26.6364L25.3781 8.38981Z" fill="black"/>
</svg>
