<svg width="24" height="24" viewBox="0 0 24 24" fill="none" xmlns="http://www.w3.org/2000/svg">
<g clip-path="url(#clip0)">
<path fill-rule="evenodd" clip-rule="evenodd" d="M0.309191 9.94471L0.602084 9.65182L1.55452 8.69938C3.69336 6.56055 6.63303 5.42916 9.64486 5.57478C11.4765 4.04631 13.6253 2.90705 15.9626 2.25403L22.2778 0.489591C22.6256 0.392431 22.9987 0.490283 23.254 0.7456C23.5093 1.00092 23.6072 1.37404 23.51 1.72179L21.7207 8.12627C21.049 10.5304 19.8625 12.7359 18.2664 14.602C18.2932 17.4667 17.1697 20.2352 15.1298 22.2751L14.1773 23.2276L13.8844 23.5205L13.4702 23.5205L10.0448 23.5205L8.99101 23.5205L9.04612 22.4682L9.19332 19.6575L7.47479 17.9389L5.44172 19.972L4.02751 18.5578L6.06057 16.5247L4.17171 14.6359L1.36149 14.783L0.309192 14.8381L0.309192 13.7844L0.309191 10.3589L0.309191 9.94471ZM11.18 19.9637L11.0985 21.5205H13.056L13.7156 20.8609C14.8501 19.7263 15.6362 18.3146 16.0127 16.7903C15.4973 17.2055 14.9557 17.5922 14.3899 17.9475L11.18 19.9637ZM2.96874 10.1136C4.21702 8.86531 5.80072 8.03898 7.50081 7.71561C6.97206 8.34733 6.4871 9.02008 6.05112 9.72993L4.27122 12.6279L2.30919 12.7307L2.30919 10.7731L2.96874 10.1136ZM16.5007 4.18026C12.8583 5.19794 9.73466 7.55398 7.75535 10.7766L5.99959 13.6353L10.4345 18.0702L13.3262 16.2539C16.4847 14.27 18.7908 11.1804 19.7944 7.5881L21.106 2.89357L16.5007 4.18026ZM11.5854 13.7843C11.9637 13.4059 11.9637 12.7925 11.5854 12.4141C11.207 12.0357 10.5936 12.0357 10.2152 12.4141C9.83683 12.7925 9.83683 13.4059 10.2152 13.7843C10.5936 14.1627 11.207 14.1627 11.5854 13.7843ZM14.3258 9.67368C14.7042 10.0521 14.7042 10.6655 14.3258 11.0439C13.9474 11.4222 13.334 11.4222 12.9556 11.0439C12.5772 10.6655 12.5772 10.0521 12.9556 9.67368C13.334 9.29532 13.9474 9.29532 14.3258 9.67368ZM17.0665 8.30346C17.4448 7.92509 17.4448 7.31164 17.0665 6.93327C16.6881 6.5549 16.0746 6.5549 15.6963 6.93327C15.3179 7.31163 15.3179 7.92509 15.6963 8.30346C16.0746 8.68182 16.6881 8.68182 17.0665 8.30346Z" fill="black"/>
</g>
<defs>
<clipPath id="clip0">
<rect width="24" height="24" fill="white"/>
</clipPath>
</defs>
</svg>
