<svg width="24" height="24" viewBox="0 0 24 24" fill="none" xmlns="http://www.w3.org/2000/svg">
<path fill-rule="evenodd" clip-rule="evenodd" d="M0.332251 2H0V0H0.332251C2.1775 0 3.75702 1.25647 4.20558 3H20.5604C22.4535 3 23.8734 4.73198 23.5021 6.58835L22.3021 12.5883C22.0217 13.9906 20.7904 15 19.3604 15H5.65396L5.68145 15.2337C5.79994 16.2409 6.65358 17 7.66775 17H20V19H7.66775C5.6394 19 3.93214 17.4818 3.69515 15.4674L2.31855 3.76632C2.20006 2.75909 1.34642 2 0.332251 2ZM5.41866 13H19.3604C19.8371 13 20.2475 12.6635 20.341 12.1961L21.541 6.19612C21.6647 5.57732 21.1914 5 20.5604 5H4.47748L5.41866 13Z" fill="black"/>
<path d="M9 22C9 23.1046 8.10457 24 7 24C5.89543 24 5 23.1046 5 22C5 20.8954 5.89543 20 7 20C8.10457 20 9 20.8954 9 22Z" fill="black"/>
<path d="M17 24C18.1046 24 19 23.1046 19 22C19 20.8954 18.1046 20 17 20C15.8954 20 15 20.8954 15 22C15 23.1046 15.8954 24 17 24Z" fill="black"/>
</svg>
