
<svg>
    <symbol id="arrow_link" width="24" height="24" viewBox="0 0 24 24"  xmlns="http://www.w3.org/2000/svg">
        <g>
            <path d="M9.28323 6L16.0225 6C16.5624 6 17 6.43765 17 6.97751V13.7168H15.045V9.33744L7.38241 17L6 15.6176L13.6626 7.95503L9.28323 7.95503L9.28323 6Z"/>
        </g>
    </symbol>
    <symbol id="menu_burger" width="32" height="32" viewBox="0 0 32 32" fill="none" xmlns="http://www.w3.org/2000/svg">
        <g>
            <path d="M0 12.25H32V9.75H0V12.25Z" fill="white"/>
            <path d="M0 22.2499H32V19.7499H0V22.2499Z" fill="white"/>
        </g>
    </symbol>
    <symbol id="arrow_right" width="32" height="32" viewBox="0 0 32 32" xmlns="http://www.w3.org/2000/svg">
        <g>
            <path d="M18.3839 8.61621L24.8839 15.1162C25.372 15.6044 25.372 16.3958 24.8839 16.884L18.3839 23.384L16.6161 21.6162L20.9822 17.2501H6V14.7501H20.9822L16.6161 10.384L18.3839 8.61621Z"/>
        </g>
    </symbol>
    <symbol id="back_arrow" width="24" height="24" viewBox="0 0 24 24"  xmlns="http://www.w3.org/2000/svg">
        <g>
            <path d="M15.2928 3.29297L16.707 4.70718L9.41412 12.0001L16.707 19.293L15.2928 20.7072L6.58569 12.0001L15.2928 3.29297Z"/>
        </g>
    </symbol>
    <symbol id="bank" width="24" height="24" viewBox="0 0 24 24" fill="none" xmlns="http://www.w3.org/2000/svg">
        <g>
            <path fill-rule="evenodd" clip-rule="evenodd" d="M23.8678 8C23.9545 8.3287 24 8.67119 24 9.02028V10H22H21V18H23V20H1V18H3V10H2H0V9.02028C0 8.67119 0.0454802 8.3287 0.132204 8C0.406368 6.96087 1.09272 6.0596 2.05743 5.52365L12 0L21.9426 5.52365C22.9073 6.0596 23.5936 6.96087 23.8678 8ZM5 10V18H8V10H5ZM10 10V18H14V10H10ZM16 10V18H19V10H16ZM12 2.28792L20.9713 7.27197C21.2866 7.44716 21.5425 7.70043 21.7202 8H2.27982C2.45749 7.70043 2.71336 7.44716 3.02871 7.27197L12 2.28792ZM0.00251943 24H0V22H0.00251943H0.00538954H0.00860928H0.0121776H0.0160935H0.0203559H0.0249637H0.029916H0.0352117H0.0408497H0.046829H0.0531485H0.0598073H0.0668042H0.0741383H0.0818085H0.0898137H0.0981529H0.106825H0.115829H0.125164H0.134829H0.144823H0.155144H0.165792H0.176766H0.188064H0.199686H0.211631H0.223897H0.236484H0.24939H0.262614H0.276156H0.290014H0.304187H0.318674H0.333475H0.348588H0.364012H0.379746H0.395789H0.41214H0.428797H0.445761H0.46303H0.480602H0.498477H0.516654H0.535132H0.553909H0.572984H0.592358H0.612028H0.631993H0.652253H0.672806H0.693651H0.714788H0.736215H0.757931H0.779935H0.802227H0.824805H0.847667H0.870814H0.894244H0.917955H0.941948H0.96622H0.990771H1.0156H1.04071H1.06609H1.09174H1.11767H1.14387H1.17035H1.19709H1.22411H1.25139H1.27894H1.30675H1.33483H1.36318H1.39179H1.42066H1.44979H1.47918H1.50883H1.53874H1.5689H1.59933H1.63H1.66093H1.69211H1.72355H1.75523H1.78717H1.81935H1.85178H1.88446H1.91738H1.95055H1.98396H2.01761H2.05151H2.08564H2.12002H2.15463H2.18948H2.22456H2.25988H2.29544H2.33123H2.36724H2.4035H2.43998H2.47668H2.51362H2.55078H2.58817H2.62579H2.66362H2.70168H2.73996H2.77847H2.81719H2.85613H2.89528H2.93466H2.97425H3.01405H3.05406H3.09429H3.13473H3.17538H3.21624H3.25731H3.29858H3.34006H3.38174H3.42363H3.46572H3.50801H3.5505H3.5932H3.63609H3.67918H3.72246H3.76594H3.80962H3.85349H3.89755H3.9418H3.98624H4.03087H4.07569H4.1207H4.16589H4.21127H4.25683H4.30258H4.34851H4.39461H4.4409H4.48737H4.53401H4.58083H4.62783H4.675H4.72235H4.76987H4.81755H4.86541H4.91344H4.96164H5.01001H5.05854H5.10723H5.15609H5.20512H5.2543H5.30365H5.35316H5.40282H5.45265H5.50263H5.55277H5.60306H5.6535H5.7041H5.75485H5.80575H5.8568H5.908H5.95935H6.01084H6.06248H6.11426H6.16619H6.21826H6.27047H6.32282H6.37531H6.42794H6.4807H6.5336H6.58664H6.63981H6.69311H6.74655H6.80011H6.85381H6.90763H6.96159H7.01567H7.06987H7.1242H7.17865H7.23323H7.28793H7.34274H7.39768H7.45274H7.50791H7.5632H7.6186H7.67412H7.72975H7.7855H7.84135H7.89732H7.95339H8.00957H8.06586H8.12226H8.17876H8.23536H8.29207H8.34888H8.40579H8.46279H8.5199H8.57711H8.63441H8.6918H8.7493H8.80688H8.86456H8.92233H8.98018H9.03813H9.09617H9.15429H9.2125H9.27079H9.32917H9.38763H9.44618H9.5048H9.56351H9.62229H9.68115H9.74009H9.7991H9.85819H9.91735H9.97658H10.0359H10.0953H10.1547H10.2142H10.2738H10.3335H10.3932H10.4529H10.5128H10.5727H10.6326H10.6927H10.7528H10.8129H10.8731H10.9333H10.9937H11.054H11.1144H11.1749H11.2354H11.296H11.3566H11.4173H11.478H11.5387H11.5995H11.6604H11.7213H11.7822H11.8431H11.9042H11.9652H12.0263H12.0874H12.1485H12.2097H12.271H12.3322H12.3935H12.4548H12.5161H12.5775H12.6389H12.7003H12.7618H12.8232H12.8847H12.9462H13.0078H13.0693H13.1309H13.1925H13.2541H13.3157H13.3774H13.439H13.5007H13.5623H13.624H13.6857H13.7474H13.8091H13.8708H13.9325H13.9943H14.056H14.1177H14.1794H14.2412H14.3029H14.3646H14.4263H14.488H14.5498H14.6115H14.6731H14.7348H14.7965H14.8582H14.9198H14.9815H15.0431H15.1047H15.1663H15.2279H15.2894H15.351H15.4125H15.474H15.5355H15.5969H15.6584H15.7198H15.7811H15.8425H15.9038H15.9651H16.0264H16.0876H16.1488H16.21H16.2711H16.3322H16.3932H16.4543H16.5152H16.5762H16.6371H16.6979H16.7588H16.8195H16.8803H16.9409H17.0016H17.0621H17.1227H17.1832H17.2436H17.304H17.3643H17.4246H17.4848H17.545H17.6051H17.6651H17.7251H17.785H17.8449H17.9047H17.9644H18.0241H18.0837H18.1432H18.2027H18.2621H18.3214H18.3807H18.4399H18.499H18.558H18.617H18.6759H18.7347H18.7934H18.852H18.9106H18.9691H19.0275H19.0858H19.1441H19.2022H19.2603H19.3183H19.3762H19.434H19.4917H19.5493H19.6068H19.6642H19.7216H19.7788H19.836H19.893H19.9499H20.0068H20.0635H20.1202H20.1767H20.2331H20.2895H20.3457H20.4018H20.4578H20.5137H20.5695H20.6251H20.6807H20.7361H20.7915H20.8467H20.9018H20.9567H21.0116H21.0663H21.121H21.1755H21.2298H21.2841H21.3382H21.3922H21.4461H21.4998H21.5534H21.6069H21.6602H21.7135H21.7665H21.8195H21.8723H21.925H21.9775H22.0299H22.0822H22.1343H22.1863H22.2381H22.2898H22.3413H22.3927H22.444H22.4951H22.546H22.5968H22.6475H22.698H22.7483H22.7985H22.8485H22.8984H22.9481H22.9977H23.0471H23.0963H23.1454H23.1943H23.2431H23.2917H23.3401H23.3884H23.4364H23.4844H23.5321H23.5797H23.6271H23.6743H23.7214H23.7683H23.815H23.8615H23.9078H23.954H24V24H23.954H23.9078H23.8615H23.815H23.7683H23.7214H23.6743H23.6271H23.5797H23.5321H23.4844H23.4364H23.3884H23.3401H23.2917H23.2431H23.1943H23.1454H23.0963H23.0471H22.9977H22.9481H22.8984H22.8485H22.7985H22.7483H22.698H22.6475H22.5968H22.546H22.4951H22.444H22.3927H22.3413H22.2898H22.2381H22.1863H22.1343H22.0822H22.0299H21.9775H21.925H21.8723H21.8195H21.7665H21.7135H21.6602H21.6069H21.5534H21.4998H21.4461H21.3922H21.3382H21.2841H21.2298H21.1755H21.121H21.0663H21.0116H20.9567H20.9018H20.8467H20.7915H20.7361H20.6807H20.6251H20.5695H20.5137H20.4578H20.4018H20.3457H20.2895H20.2331H20.1767H20.1202H20.0635H20.0068H19.9499H19.893H19.836H19.7788H19.7216H19.6642H19.6068H19.5493H19.4917H19.434H19.3762H19.3183H19.2603H19.2022H19.1441H19.0858H19.0275H18.9691H18.9106H18.852H18.7934H18.7347H18.6759H18.617H18.558H18.499H18.4399H18.3807H18.3214H18.2621H18.2027H18.1432H18.0837H18.0241H17.9644H17.9047H17.8449H17.785H17.7251H17.6651H17.6051H17.545H17.4848H17.4246H17.3643H17.304H17.2436H17.1832H17.1227H17.0621H17.0016H16.9409H16.8803H16.8195H16.7588H16.6979H16.6371H16.5762H16.5152H16.4543H16.3932H16.3322H16.2711H16.21H16.1488H16.0876H16.0264H15.9651H15.9038H15.8425H15.7811H15.7198H15.6584H15.5969H15.5355H15.474H15.4125H15.351H15.2894H15.2279H15.1663H15.1047H15.0431H14.9815H14.9198H14.8582H14.7965H14.7348H14.6731H14.6115H14.5498H14.488H14.4263H14.3646H14.3029H14.2412H14.1794H14.1177H14.056H13.9943H13.9325H13.8708H13.8091H13.7474H13.6857H13.624H13.5623H13.5007H13.439H13.3774H13.3157H13.2541H13.1925H13.1309H13.0693H13.0078H12.9462H12.8847H12.8232H12.7618H12.7003H12.6389H12.5775H12.5161H12.4548H12.3935H12.3322H12.271H12.2097H12.1485H12.0874H12.0263H11.9652H11.9042H11.8431H11.7822H11.7213H11.6604H11.5995H11.5387H11.478H11.4173H11.3566H11.296H11.2354H11.1749H11.1144H11.054H10.9937H10.9333H10.8731H10.8129H10.7528H10.6927H10.6326H10.5727H10.5128H10.4529H10.3932H10.3335H10.2738H10.2142H10.1547H10.0953H10.0359H9.97658H9.91735H9.85819H9.7991H9.74009H9.68115H9.62229H9.56351H9.5048H9.44618H9.38763H9.32917H9.27079H9.2125H9.15429H9.09617H9.03813H8.98018H8.92233H8.86456H8.80688H8.7493H8.6918H8.63441H8.57711H8.5199H8.46279H8.40579H8.34888H8.29207H8.23536H8.17876H8.12226H8.06586H8.00957H7.95339H7.89732H7.84135H7.7855H7.72975H7.67412H7.6186H7.5632H7.50791H7.45274H7.39768H7.34274H7.28793H7.23323H7.17865H7.1242H7.06987H7.01567H6.96159H6.90763H6.85381H6.80011H6.74655H6.69311H6.63981H6.58664H6.5336H6.4807H6.42794H6.37531H6.32282H6.27047H6.21826H6.16619H6.11426H6.06248H6.01084H5.95935H5.908H5.8568H5.80575H5.75485H5.7041H5.6535H5.60306H5.55277H5.50263H5.45265H5.40282H5.35316H5.30365H5.2543H5.20512H5.15609H5.10723H5.05854H5.01001H4.96164H4.91344H4.86541H4.81755H4.76987H4.72235H4.675H4.62783H4.58083H4.53401H4.48737H4.4409H4.39461H4.34851H4.30258H4.25683H4.21127H4.16589H4.1207H4.07569H4.03087H3.98624H3.9418H3.89755H3.85349H3.80962H3.76594H3.72246H3.67918H3.63609H3.5932H3.5505H3.50801H3.46572H3.42363H3.38174H3.34006H3.29858H3.25731H3.21624H3.17538H3.13473H3.09429H3.05406H3.01405H2.97425H2.93466H2.89528H2.85613H2.81719H2.77847H2.73996H2.70168H2.66362H2.62579H2.58817H2.55078H2.51362H2.47668H2.43998H2.4035H2.36724H2.33123H2.29544H2.25988H2.22456H2.18948H2.15463H2.12002H2.08564H2.05151H2.01761H1.98396H1.95055H1.91738H1.88446H1.85178H1.81935H1.78717H1.75523H1.72355H1.69211H1.66093H1.63H1.59933H1.5689H1.53874H1.50883H1.47918H1.44979H1.42066H1.39179H1.36318H1.33483H1.30675H1.27894H1.25139H1.22411H1.19709H1.17035H1.14387H1.11767H1.09174H1.06609H1.04071H1.0156H0.990771H0.96622H0.941948H0.917955H0.894244H0.870814H0.847667H0.824805H0.802227H0.779935H0.757931H0.736215H0.714788H0.693651H0.672806H0.652253H0.631993H0.612028H0.592358H0.572984H0.553909H0.535132H0.516654H0.498477H0.480602H0.46303H0.445761H0.428797H0.41214H0.395789H0.379746H0.364012H0.348588H0.333475H0.318674H0.304187H0.290014H0.276156H0.262614H0.24939H0.236484H0.223897H0.211631H0.199686H0.188064H0.176766H0.165792H0.155144H0.144823H0.134829H0.125164H0.115829H0.106825H0.0981529H0.0898137H0.0818085H0.0741383H0.0668042H0.0598073H0.0531485H0.046829H0.0408497H0.0352117H0.029916H0.0249637H0.0203559H0.0160935H0.0121776H0.00860928H0.00538954H0.00251943Z" fill="#d46062"/>
        </g>
    </symbol>
    <symbol id="beauty" width="24" height="24" viewBox="0 0 24 24" fill="none" xmlns="http://www.w3.org/2000/svg">
        <g>
            <path fill-rule="evenodd" clip-rule="evenodd" d="M3 1.90382V0H5V1.90382C5 2.16622 5.05164 2.42606 5.15197 2.66853L7 7.13461L8.84803 2.66853C8.94836 2.42606 9 2.16622 9 1.90382V0H11V1.90382C11 2.42863 10.8967 2.9483 10.6961 3.43323L8.08223 9.75L10.6932 16.0599C12.5719 16.3881 14 18.0273 14 20C14 22.2091 12.2091 24 10 24C8.80531 24 7.73294 23.4762 7 22.6458C6.26705 23.4762 5.19469 24 4 24C1.79086 24 0 22.2091 0 20C0 18.0273 1.42806 16.3881 3.3068 16.0599L5.91777 9.75L3.30393 3.43323C3.10327 2.9483 3 2.42863 3 1.90382ZM5.39291 16.2492L7 12.3654L8.60709 16.2492C7.98297 16.4811 7.43242 16.8643 7 17.3542C6.56758 16.8643 6.01702 16.4811 5.39291 16.2492ZM6 20C6 18.8954 5.10457 18 4 18C2.89543 18 2 18.8954 2 20C2 21.1046 2.89543 22 4 22C5.10457 22 6 21.1046 6 20ZM8 20C8 21.1046 8.89543 22 10 22C11.1046 22 12 21.1046 12 20C12 18.8954 11.1046 18 10 18C8.89543 18 8 18.8954 8 20Z" fill="#EB5757"/>
            <path d="M19 0C17.3431 0 16 1.34315 16 3V24H18V18H24V16H18V14H24V12H18V10H24V8H18V6H24V4H18V3C18 2.44772 18.4477 2 19 2H24V0H19Z" fill="#EB5757"/>
        </g>
    </symbol>
    <symbol id="browser" width="24" height="24" viewBox="0 0 24 24" fill="none" xmlns="http://www.w3.org/2000/svg">
        <g>
            <path d="M1 5C1 3.34315 2.34315 2 4 2H20C21.6569 2 23 3.34315 23 5V8V19C23 20.6569 21.6569 22 20 22H4C2.34315 22 1 20.6569 1 19V8V5Z" stroke="#8638e4" stroke-width="2"/>
            <path d="M5 13H19M5 17H15" stroke="#8638e4" stroke-width="2"/>
            <circle cx="5" cy="5" r="1" fill="#8638e4"/>
            <circle cx="8" cy="5" r="1" fill="#8638e4"/>
            <circle cx="11" cy="5" r="1" fill="#8638e4"/>
        </g>
    </symbol>
    <symbol id="clip" width="24" height="24" viewBox="0 0 24 24" fill="none" xmlns="http://www.w3.org/2000/svg">
        <g clip-path="url(#clip0)">
        <path d="M15.5106 6.49295L6.75441 15.2491C6.06356 15.94 6.06356 17.06 6.75441 17.7509C7.44525 18.4417 8.56532 18.4417 9.25617 17.7509L18.6378 8.36927C20.0195 6.98759 20.0195 4.74743 18.6378 3.36575V3.36575C17.2561 1.98406 15.0159 1.98406 13.6343 3.36575L4.25264 12.7474C2.18012 14.8199 2.18012 18.1801 4.25264 20.2526C6.32517 22.3252 9.68255 22.328 11.7551 20.2555L22.7568 9.25378" stroke="black" stroke-width="2"/>
        </g>
        <defs>
        <clipPath id="clip0">
        <rect width="24" height="24" fill="white"/>
        </clipPath>
        </defs>
    </symbol>
    <symbol id="cross" width="24" height="24" viewBox="0 0 24 24" fill="none" xmlns="http://www.w3.org/2000/svg">
        <g>
            <path d="M10.5859 12.0001L3.29297 4.70718L4.70718 3.29297L12.0001 10.5859L19.293 3.29297L20.7072 4.70718L13.4143 12.0001L20.7072 19.293L19.293 20.7072L12.0001 13.4143L4.70718 20.7072L3.29297 19.293L10.5859 12.0001Z" fill="black"/>
        </g>
    </symbol>
    <symbol id="dart" width="24" height="24" viewBox="0 0 24 24" fill="none" xmlns="http://www.w3.org/2000/svg">
        <g clip-path="url(#clip0)">
        <path fill-rule="evenodd" clip-rule="evenodd" d="M11.1946 5.62272L16.8174 0H20.9527C22.6357 0 24 1.3643 24 3.04725V7.18244L18.3772 12.8052H13.7426L8.10772 20.6938C7.07783 22.1357 5.17469 22.5196 3.6985 21.738L1.43651 24L0 22.5635L2.26202 20.3015C1.48056 18.8254 1.86452 16.9224 3.30633 15.8925L11.1946 10.2581V5.62272ZM15.083 7.48073L13.2262 8.80703L13.2262 6.46419L17.6589 2.0315H20.9527C21.5137 2.0315 21.9685 2.48627 21.9685 3.04725V6.34096L17.5357 10.7737H15.1937L16.5202 8.91651L20.8296 4.60724L19.3931 3.17075L15.083 7.48073ZM11.1946 12.7546L4.48713 17.5456C3.77793 18.0522 3.69333 19.0743 4.30961 19.6906C4.92588 20.3068 5.94803 20.2222 6.4546 19.5131L11.246 12.8052H11.1946V12.7546Z" fill="#8638e4"/>
        </g>
        <defs>
        <clipPath id="clip0">
        <rect width="24" height="24" fill="white"/>
        </clipPath>
        </defs>
    </symbol>
    <symbol id="diamond" width="24" height="24" viewBox="0 0 24 24" fill="none" xmlns="http://www.w3.org/2000/svg">
        <g clip-path="url(#clip0)">
        <path d="M1 8L12 22.5M1 8L4.90352 2.36158C5.27709 1.82198 5.89162 1.5 6.54791 1.5H10M1 8H8M12 22.5L23 8M12 22.5L8 8M12 22.5L16 8M23 8L19.0965 2.36158C18.7229 1.82198 18.1084 1.5 17.4521 1.5H14.25M23 8H16M10 1.5L8 8M10 1.5H14.25M8 8H16M14.25 1.5L16 8" stroke="black" stroke-width="2"/>
        </g>
        <defs>
        <clipPath id="clip0">
        <rect width="24" height="24" fill="white"/>
        </clipPath>
        </defs>
    </symbol>
    <symbol id="download" width="24" height="24" viewBox="0 0 24 24" fill="none" xmlns="http://www.w3.org/2000/svg">
        <g clip-path="url(#clip0)">
        <path d="M2 19V16H0L1.31134e-07 19C2.5184e-07 21.7614 2.23858 24 5 24H19C21.7614 24 24 21.7614 24 19V16H22V19C22 20.6569 20.6569 22 19 22H5C3.34315 22 2 20.6569 2 19Z" fill="white"/>
        <path d="M12.7071 18.7071L19.2071 12.2071L17.7929 10.7929L13 15.5858L13 0L11 8.74224e-08L11 15.5858L6.20711 10.7929L4.7929 12.2071L11.2929 18.7071C11.6834 19.0976 12.3166 19.0976 12.7071 18.7071Z" fill="white"/>
        </g>
        <defs>
        <clipPath id="clip">
        <rect width="24" height="24" fill="white" transform="translate(0 24) rotate(-90)"/>
        </clipPath>
        </defs>
    </symbol>
    <symbol id="envelope" width="24" height="24" viewBox="0 0 24 24" fill="none" xmlns="http://www.w3.org/2000/svg">
        <g>
            <rect x="1" y="3" width="22" height="17" rx="3" stroke="black" stroke-width="2"/>
            <path d="M1 5L9.17157 13.1716C10.7337 14.7337 13.2663 14.7337 14.8284 13.1716L23 5" stroke="black" stroke-width="2" stroke-linejoin="round"/>   
        </g>
    </symbol>
    <symbol id="home" width="24" height="24" viewBox="0 0 24 24" fill="none" xmlns="http://www.w3.org/2000/svg">
        <g clip-path="url(#clip0)">
        <path fill-rule="evenodd" clip-rule="evenodd" d="M0 11.3613C0 10.4962 0.373441 9.67326 1.02449 9.1036L10.0245 1.2286C11.1556 0.238905 12.8444 0.238905 13.9755 1.2286L22.9755 9.1036C23.6266 9.67326 24 10.4962 24 11.3613V21C24 22.6569 22.6569 24 21 24H3C1.34315 24 0 22.6569 0 21V11.3613ZM22 11.3613V21C22 21.5523 21.5523 22 21 22H17V17C17 14.2386 14.7614 12 12 12C9.23858 12 7 14.2386 7 17V22H3C2.44772 22 2 21.5523 2 21V11.3613C2 11.073 2.12448 10.7986 2.3415 10.6088L11.3415 2.73375C11.7185 2.40385 12.2815 2.40385 12.6585 2.73375L21.6585 10.6088C21.8755 10.7986 22 11.073 22 11.3613ZM9 22V17C9 15.3432 10.3431 14 12 14C13.6569 14 15 15.3432 15 17V22H9Z" fill="#F2994A"/>
        </g>
        <defs>
        <clipPath id="clip0">
        <rect width="24" height="24" fill="white"/>
        </clipPath>
        </defs>
    </symbol>
    <symbol id="mouse" width="32" height="32" viewBox="0 0 32 32" fill="none" xmlns="http://www.w3.org/2000/svg">
        <g>
            <path d="M17.25 15V10H14.75V15H17.25Z" fill="white"/>
            <path fill-rule="evenodd" clip-rule="evenodd" d="M17.25 1V5H20C23.3137 5 26 7.68629 26 11V20C26 25.5228 21.5228 30 16 30C10.4772 30 6 25.5228 6 20V11C6 7.68629 8.68629 5 12 5H14.75V1H17.25ZM20 7.5H12C10.067 7.5 8.5 9.067 8.5 11V20C8.5 24.1421 11.8579 27.5 16 27.5C20.1421 27.5 23.5 24.1421 23.5 20V11C23.5 9.067 21.933 7.5 20 7.5Z" fill="white"/>
        </g>
    </symbol>
    <symbol id="paper_plane" width="32" height="32" viewBox="0 0 32 32" fill="none" xmlns="http://www.w3.org/2000/svg">
        <g>
            <path d="M28 4L3.8018 11.2595C3.43942 11.3682 3.3244 11.8244 3.59193 12.0919L7.06495 15.5649C7.26257 15.7626 7.36847 16.0339 7.357 16.3131L7 25M28 4L20.7405 28.1982C20.6318 28.5606 20.1756 28.6756 19.9081 28.4081L16.4351 24.9351C16.2374 24.7374 15.9661 24.6315 15.6869 24.643L7 25M28 4L7 25" stroke="white" stroke-width="2.5"/>
            <path fill-rule="evenodd" clip-rule="evenodd" d="M29.8644 2.13574L21.9378 28.5575C21.5573 29.8258 19.9605 30.2284 19.0242 29.292L15.6287 25.8965L5.69534 26.3048L6.10356 16.3714L2.70806 12.9759C1.77172 12.0396 2.1743 10.4428 3.44263 10.0623L29.8644 2.13574ZM5.36371 12.096L7.94884 14.6811C8.39349 15.1258 8.63178 15.7362 8.60596 16.3645L8.38045 21.8519L23.6103 6.62204L5.36371 12.096ZM25.3781 8.38981L10.1482 23.6196L15.6356 23.3941C16.2639 23.3683 16.8743 23.6066 17.319 24.0513L19.9041 26.6364L25.3781 8.38981Z" fill="white"/>
        </g>
    </symbol>
    <symbol id="mobile" width="24" height="24" viewBox="0 0 24 24" fill="none" xmlns="http://www.w3.org/2000/svg">
        <g>
            <rect x="5" y="1" width="14" height="22" rx="3" stroke="black" stroke-width="2"/>
            <path d="M4 16H20" stroke="black" stroke-width="2"/>
            <circle cx="12" cy="19.5" r="1.5" fill="black"/>
        </g>
    </symbol>
    <symbol id="network_cloud" width="24" height="24" viewBox="0 0 24 24" fill="none" xmlns="http://www.w3.org/2000/svg">
        <g>
            <path fill-rule="evenodd" clip-rule="evenodd" d="M16.811 4.06544C16.18 1.72353 14.0413 0 11.5 0C8.46243 0 6 2.46243 6 5.5C6 5.70871 6.01162 5.9147 6.03426 6.11736C4.29168 6.54938 3 8.12384 3 10C3 12.2091 4.79086 14 7 14H11V18.1707C10.1476 18.472 9.47199 19.1476 9.17071 20H0V22H9.17071C9.58254 23.1652 10.6938 24 12 24C13.3062 24 14.4175 23.1652 14.8293 22H24V20H14.8293C14.528 19.1476 13.8524 18.472 13 18.1707V14H16C18.7614 14 21 11.7614 21 9C21 6.51472 19.1868 4.45295 16.811 4.06544ZM15.2156 5.83164L14.8799 4.58578C14.4782 3.09475 13.1144 2 11.5 2C9.567 2 8 3.567 8 5.5C8 5.63438 8.00748 5.76625 8.0219 5.89535L8.21643 7.63692L6.51552 8.0586C5.64403 8.27465 5 9.0646 5 10C5 11.1046 5.89543 12 7 12H16C17.6569 12 19 10.6569 19 9C19 7.51077 17.9129 6.2716 16.4891 6.03936L15.2156 5.83164ZM13 21C13 21.5523 12.5523 22 12 22C11.4477 22 11 21.5523 11 21C11 20.4477 11.4477 20 12 20C12.5523 20 13 20.4477 13 21Z" fill="#FDD170"/>
        </g>
    </symbol>
    <symbol id="rocket" width="24" height="24" viewBox="0 0 24 24" fill="none" xmlns="http://www.w3.org/2000/svg">
            <g clip-path="url(#clip0)">
                <path fill-rule="evenodd" clip-rule="evenodd" d="M0.309191 9.94471L0.602084 9.65182L1.55452 8.69938C3.69336 6.56055 6.63303 5.42916 9.64486 5.57478C11.4765 4.04631 13.6253 2.90705 15.9626 2.25403L22.2778 0.489591C22.6256 0.392431 22.9987 0.490283 23.254 0.7456C23.5093 1.00092 23.6072 1.37404 23.51 1.72179L21.7207 8.12627C21.049 10.5304 19.8625 12.7359 18.2664 14.602C18.2932 17.4667 17.1697 20.2352 15.1298 22.2751L14.1773 23.2276L13.8844 23.5205L13.4702 23.5205L10.0448 23.5205L8.99101 23.5205L9.04612 22.4682L9.19332 19.6575L7.47479 17.9389L5.44172 19.972L4.02751 18.5578L6.06057 16.5247L4.17171 14.6359L1.36149 14.783L0.309192 14.8381L0.309192 13.7844L0.309191 10.3589L0.309191 9.94471ZM11.18 19.9637L11.0985 21.5205H13.056L13.7156 20.8609C14.8501 19.7263 15.6362 18.3146 16.0127 16.7903C15.4973 17.2055 14.9557 17.5922 14.3899 17.9475L11.18 19.9637ZM2.96874 10.1136C4.21702 8.86531 5.80072 8.03898 7.50081 7.71561C6.97206 8.34733 6.4871 9.02008 6.05112 9.72993L4.27122 12.6279L2.30919 12.7307L2.30919 10.7731L2.96874 10.1136ZM16.5007 4.18026C12.8583 5.19794 9.73466 7.55398 7.75535 10.7766L5.99959 13.6353L10.4345 18.0702L13.3262 16.2539C16.4847 14.27 18.7908 11.1804 19.7944 7.5881L21.106 2.89357L16.5007 4.18026ZM11.5854 13.7843C11.9637 13.4059 11.9637 12.7925 11.5854 12.4141C11.207 12.0357 10.5936 12.0357 10.2152 12.4141C9.83683 12.7925 9.83683 13.4059 10.2152 13.7843C10.5936 14.1627 11.207 14.1627 11.5854 13.7843ZM14.3258 9.67368C14.7042 10.0521 14.7042 10.6655 14.3258 11.0439C13.9474 11.4222 13.334 11.4222 12.9556 11.0439C12.5772 10.6655 12.5772 10.0521 12.9556 9.67368C13.334 9.29532 13.9474 9.29532 14.3258 9.67368ZM17.0665 8.30346C17.4448 7.92509 17.4448 7.31164 17.0665 6.93327C16.6881 6.5549 16.0746 6.5549 15.6963 6.93327C15.3179 7.31163 15.3179 7.92509 15.6963 8.30346C16.0746 8.68182 16.6881 8.68182 17.0665 8.30346Z" fill="#8638e4"/>
            </g>
            <defs>
            <clipPath id="clip0">
            <rect width="24" height="24" fill="white"/>
            </clipPath>
            </defs>
    </symbol>
    <symbol id="shoping_cart" width="24" height="24" viewBox="0 0 24 24" fill="none" xmlns="http://www.w3.org/2000/svg">
        <g>
            <path fill-rule="evenodd" clip-rule="evenodd" d="M0.332251 2H0V0H0.332251C2.1775 0 3.75702 1.25647 4.20558 3H20.5604C22.4535 3 23.8734 4.73198 23.5021 6.58835L22.3021 12.5883C22.0217 13.9906 20.7904 15 19.3604 15H5.65396L5.68145 15.2337C5.79994 16.2409 6.65358 17 7.66775 17H20V19H7.66775C5.6394 19 3.93214 17.4818 3.69515 15.4674L2.31855 3.76632C2.20006 2.75909 1.34642 2 0.332251 2ZM5.41866 13H19.3604C19.8371 13 20.2475 12.6635 20.341 12.1961L21.541 6.19612C21.6647 5.57732 21.1914 5 20.5604 5H4.47748L5.41866 13Z" fill="#F2994A"/>
            <path d="M9 22C9 23.1046 8.10457 24 7 24C5.89543 24 5 23.1046 5 22C5 20.8954 5.89543 20 7 20C8.10457 20 9 20.8954 9 22Z" fill="#F2994A"/>
            <path d="M17 24C18.1046 24 19 23.1046 19 22C19 20.8954 18.1046 20 17 20C15.8954 20 15 20.8954 15 22C15 23.1046 15.8954 24 17 24Z" fill="#F2994A"/>
        </g>
    </symbol>
    <symbol id="star" width="24" height="24" viewBox="0 0 24 24" fill="none" xmlns="http://www.w3.org/2000/svg">
        <g>
            <path fill-rule="evenodd" clip-rule="evenodd" d="M15.9394 8.1459L12.4127 1L8.88597 8.1459L1 9.2918L6.70634 14.8541L5.35925 22.7082L12.4127 19L19.4661 22.7082L18.119 14.8541L23.8254 9.2918L15.9394 8.1459ZM19.5274 10.6883L14.6113 9.97391L12.4127 5.5191L10.2141 9.97391L5.29792 10.6883L8.8553 14.1559L8.01552 19.0522L12.4127 16.7404L16.8098 19.0522L15.9701 14.1559L19.5274 10.6883Z" fill="#8638e4"/>
        </g>
    </symbol>
    <symbol id="user" width="24" height="24" viewBox="0 0 24 24" fill="none" xmlns="http://www.w3.org/2000/svg">
        <g>
            <circle cx="12" cy="6" r="5" stroke="black" stroke-width="2"/>
            <path d="M20 24V23C20 18.5817 16.4183 15 12 15V15C7.58172 15 4 18.5817 4 23V24" stroke="black" stroke-width="2"/>
        </g>
    </symbol>
    <symbol id="users" width="24" height="24" viewBox="0 0 24 24" fill="none" xmlns="http://www.w3.org/2000/svg">
        <g>
            <path fill-rule="evenodd" clip-rule="evenodd" d="M22 4.5C22 6.98528 19.9853 9 17.5 9C15.0147 9 13 6.98528 13 4.5C13 2.01472 15.0147 0 17.5 0C19.9853 0 22 2.01472 22 4.5ZM20 4.5C20 5.88071 18.8807 7 17.5 7C16.1193 7 15 5.88071 15 4.5C15 3.11929 16.1193 2 17.5 2C18.8807 2 20 3.11929 20 4.5Z" fill="#8638e4"/>
            <path fill-rule="evenodd" clip-rule="evenodd" d="M7.5 13C9.98528 13 12 10.9853 12 8.5C12 6.01472 9.98528 4 7.5 4C5.01472 4 3 6.01472 3 8.5C3 10.9853 5.01472 13 7.5 13ZM7.5 11C8.88071 11 10 9.88071 10 8.5C10 7.11929 8.88071 6 7.5 6C6.11929 6 5 7.11929 5 8.5C5 9.88071 6.11929 11 7.5 11Z" fill="#8638e4"/>
            <path d="M15 13H19C20.6569 13 22 14.3431 22 16V20H24V16C24 13.2386 21.7614 11 19 11H15V13Z" fill="#8638e4"/>
            <path d="M5 15C2.23858 15 0 17.2386 0 20V24H2V20C2 18.3431 3.34315 17 5 17H10C11.6569 17 13 18.3431 13 20V24H15V20C15 17.2386 12.7614 15 10 15H5Z" fill="#8638e4"/>
        </g>
    </symbol>
    <symbol id="menu_dotes" width="24" height="24" viewBox="0 0 24 24" fill="none" xmlns="http://www.w3.org/2000/svg">
        <g>
            <path d="M5 12C5 13.1046 4.10457 14 3 14C1.89543 14 1 13.1046 1 12C1 10.8954 1.89543 10 3 10C4.10457 10 5 10.8954 5 12Z" fill="white"/>
            <path d="M14 12C14 13.1046 13.1046 14 12 14C10.8954 14 10 13.1046 10 12C10 10.8954 10.8954 10 12 10C13.1046 10 14 10.8954 14 12Z" fill="white"/>
            <path d="M21 14C22.1046 14 23 13.1046 23 12C23 10.8954 22.1046 10 21 10C19.8954 10 19 10.8954 19 12C19 13.1046 19.8954 14 21 14Z" fill="white"/>
        </g>
    </symbol>
    <symbol id="fire" viewBox="0 0 176 132" fill="none" xmlns="http://www.w3.org/2000/svg">
        <g>
            <path d="M150.5 32L116.5 66L117.207 66.7071L151.207 32.7071L150.5 32Z" fill="#27272F"/>
            <path d="M153.898 51L135 61.9108L135.5 62.7768L154.398 51.866L153.898 51Z" fill="#27272F"/>
            <path d="M71.4043 55.9043L60.4936 37.0063L61.3596 36.5063L72.2704 55.4043L71.4043 55.9043Z" fill="#27272F"/>
            <path d="M28.5 69L58.4943 79.2728L58.8184 78.3268L28.824 68.0539L28.5 69Z" fill="#27272F"/>
            <path d="M29 33C29 36.5899 31.9101 39.5 35.5 39.5C39.6421 39.5 43 42.8579 43 47C43 50.5899 45.9101 53.5 49.5 53.5C53.6421 53.5 57 56.8579 57 61C57 64.5899 59.9101 67.5 63.5 67.5V68.5C59.3579 68.5 56 65.1421 56 61C56 57.4101 53.0899 54.5 49.5 54.5C45.3579 54.5 42 51.1421 42 47C42 43.4101 39.0899 40.5 35.5 40.5C31.3579 40.5 28 37.1421 28 33H29Z" fill="#27272F"/>
            <path d="M143.214 70.4688C145.009 67.3599 148.984 66.2947 152.093 68.0897L152.593 67.2236C149.006 65.1526 144.419 66.3816 142.348 69.9688C140.553 73.0776 136.578 74.1428 133.469 72.3479C129.882 70.2768 125.295 71.5059 123.224 75.0931L124.09 75.5931C125.885 72.4842 129.86 71.419 132.969 73.2139C136.556 75.285 141.143 74.0559 143.214 70.4688Z" fill="#27272F"/>
            <path d="M136.58 46.0991L131.613 46.0991L127.281 55.5002L136.58 50.8954L136.58 46.0991Z" fill="white"/>
            <path d="M89.8161 98.0002C89.8045 98.0002 89.7928 98.0002 89.7812 98.0002L89.8161 98.0002Z" fill="white"/>
            <path fill-rule="evenodd" clip-rule="evenodd" d="M79.0553 64.4714C79.2227 64.9033 79.3905 65.3392 79.5522 65.7612C80.2183 67.4991 80.7812 69.0002 80.7812 69.0002L78.9086 69.7024L78.8428 69.5274C78.8001 69.4138 78.7378 69.2485 78.66 69.0423C78.5043 68.6297 78.2863 68.0536 78.0372 67.3997C77.856 66.9239 77.6588 66.4083 77.4575 65.8856C74.2417 68.8447 70.7812 72.9209 70.7812 79.0002C70.7812 87.1554 75.1518 93.4081 81.5313 96.2764C79.8198 94.3373 78.7812 91.79 78.7812 89.0002C78.7812 84.3233 82.4755 81.2018 85.6203 78.5446C86.711 77.623 87.7357 76.7572 88.5172 75.9017C89.0957 75.2684 89.541 74.6407 89.7812 74.0002C90.0214 74.6407 90.4667 75.2684 91.0453 75.9017C91.8268 76.7572 92.8514 77.623 93.9421 78.5446C97.087 81.2018 100.781 84.3233 100.781 89.0002C100.781 91.79 99.7427 94.3373 98.0311 96.2764C104.411 93.4081 108.781 87.1554 108.781 79.0002C108.781 73.5211 106.328 69.8842 102.463 66.1974C100.976 64.7791 99.3378 63.4061 97.5649 61.9206C96.9831 61.4331 96.3869 60.9336 95.7768 60.4163C93.8174 58.7548 91.764 56.9498 89.7523 54.8885C87.3186 57.6247 85.6312 60.8853 84.5132 63.6805C83.8591 65.3158 83.4133 66.7576 83.1323 67.7854C82.992 68.2986 82.8934 68.7064 82.8308 68.981C82.7995 69.1182 82.7772 69.2219 82.7633 69.2887C82.759 69.3097 82.7554 69.327 82.7527 69.3406C82.751 69.3486 82.7497 69.3553 82.7486 69.3607L82.7459 69.3744L82.7456 69.376L81.4119 76.378L78.9086 69.7024L80.7812 69.0002C80.7812 69.0002 81.0321 67.6829 81.6673 65.6927C82.699 62.4595 84.7447 57.4505 88.3758 53.4277C88.8202 52.9354 89.2883 52.4579 89.7812 52.0002C90.0881 52.3393 90.397 52.6717 90.7075 52.9978C93.3847 55.8088 96.1831 58.1534 98.8114 60.3555C105.318 65.8068 110.781 70.3844 110.781 79.0002C110.781 91.4857 101.401 99.9805 89.8216 100C89.8081 100 89.7947 100 89.7812 100C89.7678 100 89.7543 100 89.7409 100C78.1614 99.9805 68.7812 91.4857 68.7812 79.0002C68.7812 71.6952 73.2127 66.9753 76.6804 63.8883C77.1828 63.441 77.6649 63.0281 78.1104 62.6465L78.2812 62.5002C78.5198 63.0968 78.7869 63.7788 79.0553 64.4714ZM89.8161 98.0002C94.7706 97.9814 98.7812 93.9592 98.7812 89.0002C98.7812 86.1702 97.012 83.936 94.5038 81.6725C93.8947 81.1229 93.2709 80.5958 92.6402 80.0628L92.63 80.0543C92.0062 79.5272 91.3678 78.9877 90.7828 78.4524C90.4502 78.1482 90.1099 77.8239 89.7812 77.4792C89.4526 77.8239 89.1122 78.1482 88.7797 78.4524C88.1946 78.9877 87.5562 79.5272 86.9324 80.0543L86.9223 80.0628C86.2915 80.5958 85.6677 81.1229 85.0586 81.6725C82.5504 83.936 80.7812 86.1702 80.7812 89.0002C80.7812 93.9592 84.7918 97.9814 89.7464 98.0002C89.758 98.0002 89.7696 98.0002 89.7812 98.0002" fill="white"/>
            <path d="M41.2469 75.1919L40 72.5103L42.6983 71.0707L47.9944 75.3972L41.2469 75.1919Z" fill="white"/>
        </g>
    </symbol>
    <symbol id="infinity" viewBox="0 0 176 132"  fill="none" xmlns="http://www.w3.org/2000/svg">
        <g>
            <path fill-rule="evenodd" clip-rule="evenodd" d="M87.5 64.2486C87.4301 64.0947 87.3523 63.9254 87.2665 63.7416C86.8028 62.7483 86.1056 61.332 85.169 59.6336C83.2966 56.2378 80.4642 51.7084 76.6246 47.1768C68.9502 38.1192 57.2035 29 41.02 29C20.5812 29 4 45.3349 4 65.5C4 85.6651 20.5812 102 41.02 102C57.2035 102 68.9502 92.8808 76.6246 83.8232C80.4642 79.2916 83.2966 74.7622 85.169 71.3664C86.1056 69.668 86.8028 68.2517 87.2665 67.2584C87.3523 67.0746 87.4301 66.9053 87.5 66.7514C87.5699 66.9053 87.6477 67.0746 87.7335 67.2584C88.1972 68.2517 88.8944 69.668 89.831 71.3664C91.7034 74.7622 94.5358 79.2916 98.3754 83.8232C106.05 92.8808 117.797 102 133.98 102C154.419 102 171 85.6651 171 65.5C171 45.3349 154.419 29 133.98 29C117.797 29 106.05 38.1192 98.3754 47.1768C94.5358 51.7084 91.7034 56.2378 89.831 59.6336C88.8944 61.332 88.1972 62.7483 87.7335 63.7416C87.6477 63.9254 87.5699 64.0947 87.5 64.2486ZM41.02 30C21.1199 30 5 45.9006 5 65.5C5 85.0994 21.1199 101 41.02 101C56.7915 101 68.2848 92.1192 75.8616 83.1768C79.6476 78.7084 82.4438 74.2378 84.2933 70.8836C85.2178 69.207 85.905 67.8108 86.3604 66.8354C86.5881 66.3476 86.7578 65.9652 86.8703 65.7056C86.9051 65.6251 86.9345 65.5564 86.9584 65.5C86.9345 65.4436 86.9051 65.3749 86.8703 65.2944C86.7578 65.0348 86.5881 64.6523 86.3604 64.1646C85.905 63.1892 85.2178 61.793 84.2933 60.1164C82.4438 56.7622 79.6476 52.2916 75.8616 47.8232C68.2848 38.8808 56.7915 30 41.02 30ZM88.1298 65.2944C88.0949 65.3749 88.0655 65.4436 88.0416 65.5C88.0655 65.5564 88.0949 65.6251 88.1298 65.7056C88.2422 65.9652 88.4119 66.3476 88.6396 66.8354C89.095 67.8108 89.7822 69.207 90.7067 70.8836C92.5563 74.2378 95.3524 78.7084 99.1384 83.1768C106.715 92.1192 118.208 101 133.98 101C153.88 101 170 85.0994 170 65.5C170 45.9006 153.88 30 133.98 30C118.208 30 106.715 38.8808 99.1384 47.8232C95.3524 52.2916 92.5563 56.7622 90.7067 60.1164C89.7822 61.793 89.095 63.1892 88.6396 64.1646C88.4119 64.6523 88.2422 65.0348 88.1298 65.2944Z" fill="#27272F"/>
            <path d="M22.5 39.5C25.2614 39.5 27.5 37.2614 27.5 34.5C27.5 31.7386 25.2614 29.5 22.5 29.5C19.7386 29.5 17.5 31.7386 17.5 34.5C17.5 37.2614 19.7386 39.5 22.5 39.5Z" fill="white"/>
            <path fill-rule="evenodd" clip-rule="evenodd" d="M87.5 63.1597C87.4202 63.0064 87.3352 62.8462 87.2449 62.6797C86.4602 61.2322 85.2719 59.2985 83.6571 57.36C80.4386 53.4962 75.424 49.5 68.46 49.5C59.643 49.5 52.5 56.666 52.5 65.5C52.5 74.334 59.643 81.5 68.46 81.5C75.424 81.5 80.4386 77.5038 83.6571 73.64C85.2719 71.7015 86.4602 69.7678 87.2449 68.3203C87.3352 68.1538 87.4202 67.9936 87.5 67.8403C87.5798 67.9936 87.6648 68.1538 87.7551 68.3203C88.5398 69.7678 89.7281 71.7015 91.3429 73.64C94.5614 77.5038 99.576 81.5 106.54 81.5C115.357 81.5 122.5 74.334 122.5 65.5C122.5 56.666 115.357 49.5 106.54 49.5C99.576 49.5 94.5614 53.4962 91.3429 57.36C89.7281 59.2985 88.5398 61.2322 87.7551 62.6797C87.6648 62.8462 87.5798 63.0064 87.5 63.1597ZM68.46 51.5C60.7526 51.5 54.5 57.7655 54.5 65.5C54.5 73.2345 60.7526 79.5 68.46 79.5C74.586 79.5 79.0914 75.9962 82.1204 72.36C83.6294 70.5485 84.7467 68.7322 85.4866 67.3672C85.856 66.6858 86.1298 66.1199 86.3099 65.7274C86.3485 65.6434 86.3827 65.5674 86.4127 65.5C86.3947 65.4595 86.3752 65.416 86.3541 65.3695C86.3401 65.3385 86.3253 65.3062 86.3099 65.2726C86.1298 64.8801 85.856 64.3142 85.4866 63.6328C84.7467 62.2678 83.6294 60.4515 82.1204 58.64C79.0914 55.0038 74.586 51.5 68.46 51.5ZM88.5873 65.5C88.6173 65.5674 88.6515 65.6434 88.6901 65.7274C88.8702 66.1199 89.144 66.6858 89.5134 67.3672C90.2533 68.7322 91.3706 70.5485 92.8796 72.36C95.9086 75.9962 100.414 79.5 106.54 79.5C114.247 79.5 120.5 73.2345 120.5 65.5C120.5 57.7655 114.247 51.5 106.54 51.5C100.414 51.5 95.9086 55.0038 92.8796 58.64C91.3706 60.4515 90.2533 62.2678 89.5134 63.6328C89.144 64.3142 88.8702 64.8801 88.6901 65.2726C88.6515 65.3566 88.6173 65.4326 88.5873 65.5Z" fill="white"/>
            <path d="M163.5 90.5C163.5 92.1569 162.157 93.5 160.5 93.5C158.843 93.5 157.5 92.1569 157.5 90.5C157.5 88.8431 158.843 87.5 160.5 87.5C162.157 87.5 163.5 88.8431 163.5 90.5Z" fill="white"/>
        </g>
    </symbol>
    <symbol id="stars"  viewBox="0 0 176 132" fill="none" xmlns="http://www.w3.org/2000/svg">
        <g>
            <path d="M81.23 14.9314C81.268 14.6578 81.5204 14.4669 81.794 14.5048L88.8016 15.4768C88.8174 15.479 88.833 15.4819 88.8485 15.4856L92.2692 16.2982C92.2795 16.3007 92.2897 16.3035 92.2998 16.3066L95.649 17.331C95.6592 17.3341 95.6693 17.3376 95.6793 17.3414L98.9408 18.5722C98.9507 18.5759 98.9605 18.5799 98.9701 18.5843L102.135 20.0142C102.141 20.0167 102.146 20.0194 102.152 20.0221C102.156 20.024 102.16 20.026 102.163 20.0281L105.219 21.648C105.229 21.653 105.238 21.6582 105.247 21.6638L108.181 23.4665C108.186 23.4694 108.19 23.4723 108.195 23.4753C108.199 23.4782 108.203 23.481 108.208 23.484L111.011 25.4623C111.02 25.4683 111.028 25.4747 111.037 25.4812L113.701 27.6243C113.709 27.6309 113.717 27.6377 113.725 27.6448L116.237 29.9417C116.241 29.9452 116.245 29.9487 116.248 29.9522C116.252 29.956 116.256 29.9599 116.26 29.9638L118.613 32.4054C118.62 32.413 118.627 32.4208 118.634 32.4288L120.819 35.0026C120.826 35.0105 120.832 35.0187 120.839 35.027L122.852 37.722C122.858 37.7305 122.864 37.7392 122.87 37.748L124.701 40.5535C124.707 40.5622 124.712 40.571 124.717 40.5801L126.364 43.4833C126.369 43.4923 126.374 43.5016 126.379 43.5109L127.834 46.4974C127.839 46.5068 127.843 46.5164 127.847 46.526L129.108 49.5867C129.112 49.5964 129.115 49.6061 129.119 49.616L130.181 52.7346C130.184 52.7443 130.187 52.7542 130.19 52.7642L131.054 55.9298C131.056 55.9399 131.059 55.9501 131.061 55.9604L131.721 59.1586C131.722 59.1647 131.723 59.1708 131.724 59.1769C131.725 59.181 131.726 59.1851 131.726 59.1893L132.184 62.4074C132.185 62.4177 132.186 62.428 132.187 62.4383L132.443 65.6637C132.444 65.674 132.444 65.6843 132.444 65.6946L132.5 68.9164C132.5 68.9269 132.5 68.9374 132.499 68.9479L132.353 72.1497C132.352 72.1601 132.352 72.1704 132.35 72.1807L132.007 75.35C132.006 75.3564 132.006 75.3627 132.005 75.369C132.004 75.3729 132.004 75.3768 132.003 75.3807L131.466 78.5083C131.465 78.5186 131.463 78.5287 131.46 78.5388L130.734 81.6104C130.732 81.6206 130.729 81.6308 130.726 81.6408L129.812 84.6454C129.811 84.6508 129.809 84.6562 129.807 84.6615C129.806 84.6659 129.804 84.6703 129.802 84.6747L128.712 87.5996C128.708 87.6094 128.704 87.6191 128.7 87.6287L127.434 90.4649C127.43 90.4744 127.425 90.4837 127.42 90.4929L125.988 93.2314C125.983 93.2407 125.978 93.2498 125.973 93.2588L124.381 95.885C124.376 95.894 124.37 95.9028 124.364 95.9114L122.621 98.4182C122.615 98.4268 122.608 98.4352 122.602 98.4433L120.715 100.823C120.711 100.829 120.707 100.834 120.703 100.838C120.7 100.842 120.698 100.845 120.695 100.848L118.674 103.09C118.667 103.098 118.66 103.106 118.653 103.113L116.505 105.213C116.498 105.22 116.49 105.227 116.482 105.234L114.222 107.183C114.214 107.19 114.206 107.197 114.197 107.203L111.831 108.993C111.823 108.999 111.814 109.006 111.806 109.011L109.347 110.64C109.338 110.646 109.329 110.652 109.32 110.657L106.775 112.118C106.766 112.123 106.757 112.128 106.748 112.133L104.132 113.423C104.127 113.425 104.123 113.427 104.118 113.429C104.113 113.432 104.108 113.434 104.103 113.436L101.424 114.551C101.414 114.555 101.404 114.559 101.394 114.563L98.6673 115.498C98.6572 115.502 98.6471 115.505 98.6369 115.508L95.8707 116.264C95.8605 116.267 95.8502 116.269 95.8399 116.272L93.0451 116.849C93.0345 116.851 93.0239 116.853 93.0132 116.855L90.204 117.247C90.1937 117.249 90.1833 117.25 90.1729 117.251L87.3584 117.466C87.354 117.466 87.3495 117.467 87.345 117.467C87.3387 117.467 87.3324 117.467 87.3261 117.467L84.5187 117.5C84.5082 117.5 84.4976 117.5 84.487 117.499L81.6993 117.355C81.6886 117.354 81.678 117.353 81.6673 117.352L78.9065 117.03C78.9034 117.029 78.9004 117.029 78.8974 117.029C78.89 117.028 78.8827 117.026 78.8754 117.025L76.1556 116.533C76.145 116.531 76.1345 116.529 76.124 116.526L73.4526 115.862C73.4423 115.859 73.4322 115.856 73.4221 115.853L70.8133 115.026C70.8031 115.023 70.7931 115.019 70.7831 115.015L68.2422 114.027C68.2324 114.023 68.2228 114.019 68.2132 114.015L65.7528 112.874C65.743 112.87 65.7334 112.865 65.724 112.86L63.3529 111.569C63.3437 111.564 63.3347 111.559 63.3259 111.554L61.0514 110.124C61.0423 110.118 61.0335 110.112 61.0248 110.106L58.8559 108.54C58.8474 108.534 58.8391 108.528 58.831 108.521L56.7746 106.83C56.7665 106.824 56.7586 106.817 56.7509 106.81L54.8144 105.002C54.8067 104.994 54.7993 104.987 54.7921 104.979L52.9807 103.061C52.9772 103.057 52.9737 103.053 52.9703 103.049C52.9667 103.045 52.9631 103.041 52.9596 103.037L51.2823 101.017C51.2757 101.009 51.2693 101.001 51.2632 100.992L49.7219 98.882C49.7156 98.8734 49.7097 98.8647 49.704 98.8558L48.3057 96.6621C48.3001 96.6533 48.2947 96.6443 48.2897 96.6351L47.038 94.369C47.033 94.3599 47.0282 94.3507 47.0238 94.3413L45.9205 92.0118C45.916 92.0024 45.9119 91.9928 45.908 91.9831L44.9585 89.6029C44.9546 89.5933 44.9511 89.5835 44.9478 89.5736L44.1521 87.1501C44.1489 87.1401 44.1459 87.13 44.1433 87.1199L43.5049 84.6637C43.5023 84.6537 43.5 84.6436 43.498 84.6335L43.0153 82.1538C43.0133 82.1436 43.0116 82.1334 43.0103 82.1231L42.6848 79.6344C42.6835 79.624 42.6824 79.6136 42.6817 79.6032L42.5136 77.1108C42.513 77.1005 42.5126 77.0901 42.5125 77.0797L42.5 74.5946C42.5 74.5842 42.5002 74.5738 42.5008 74.5635L42.6421 72.0983C42.6427 72.0879 42.6436 72.0775 42.6448 72.0672L42.9381 69.6273C42.9393 69.6169 42.9409 69.6065 42.9428 69.5962L43.3863 67.1961C43.3881 67.1861 43.3903 67.1761 43.3928 67.1661L43.9793 64.8113C43.9818 64.8011 43.9847 64.791 43.9879 64.781L44.7174 62.4805C44.7206 62.4706 44.724 62.4608 44.7277 62.4512L45.5932 60.2158C45.597 60.2059 45.6012 60.1962 45.6056 60.1866L46.6052 58.0237C46.6094 58.0144 46.614 58.0052 46.6189 57.9962L47.7418 55.9129C47.7469 55.9035 47.7522 55.8943 47.7578 55.8853L49.0041 53.8889C49.0097 53.8801 49.0155 53.8714 49.0216 53.8629L50.3805 51.9624C50.3866 51.9539 50.3929 51.9456 50.3995 51.9375L51.8658 50.1366C51.8724 50.1284 51.8794 50.1204 51.8866 50.1126L53.453 48.4203C53.4601 48.4126 53.4675 48.4051 53.4751 48.3978L55.1345 46.8177C55.1421 46.8105 55.1499 46.8035 55.1579 46.7968L56.9031 45.3325C56.9112 45.3257 56.9196 45.3191 56.9282 45.3128L58.7485 43.9734C58.7569 43.9672 58.7656 43.9612 58.7745 43.9555L60.6645 42.741C60.6692 42.738 60.674 42.7351 60.6787 42.7322C60.6831 42.7296 60.6875 42.7271 60.6919 42.7246L62.6428 41.6404C62.652 41.6353 62.6614 41.6304 62.671 41.6259L64.6737 40.6738C64.6783 40.6717 64.6829 40.6696 64.6875 40.6675C64.6927 40.6653 64.6978 40.6631 64.703 40.661L66.7486 39.8447C66.7585 39.8408 66.7684 39.8372 66.7785 39.8339L68.858 39.1534C68.8681 39.15 68.8783 39.1471 68.8886 39.1444L70.9932 38.6014C71.0035 38.5988 71.0139 38.5964 71.0243 38.5944L73.1468 38.189C73.1574 38.187 73.168 38.1853 73.1787 38.184L75.3102 37.9179C75.3207 37.9166 75.3313 37.9156 75.342 37.915L77.4716 37.7864C77.4822 37.7858 77.4928 37.7855 77.5034 37.7855L79.6242 37.7928C79.6348 37.7928 79.6454 37.7932 79.6559 37.7939L81.7588 37.9351C81.7661 37.9356 81.7735 37.9362 81.7808 37.9371C81.7842 37.9374 81.7876 37.9378 81.791 37.9383L83.867 38.2134C83.8774 38.2148 83.8878 38.2165 83.8981 38.2186L85.942 38.6222C85.9525 38.6243 85.9629 38.6267 85.9732 38.6294L87.9741 39.1597C87.9844 39.1624 87.9946 39.1655 88.0047 39.1689L89.9573 39.8223C89.9674 39.8257 89.9775 39.8294 89.9874 39.8334L91.8828 40.6063C91.8927 40.6103 91.9024 40.6147 91.912 40.6193L93.743 41.5062C93.7525 41.5108 93.7619 41.5157 93.7711 41.5209L95.5324 42.5164C95.5415 42.5216 95.5505 42.527 95.5593 42.5328L97.2455 43.6314C97.2545 43.6373 97.2634 43.6435 97.272 43.6499L98.8742 44.8482C98.8825 44.8544 98.8906 44.8608 98.8985 44.8676L100.415 46.1563C100.423 46.1633 100.431 46.1705 100.439 46.178L101.86 47.5536C101.868 47.5607 101.875 47.5681 101.882 47.5758L103.209 49.0292C103.216 49.0371 103.223 49.0452 103.23 49.0536L104.453 50.5794C104.459 50.5875 104.465 50.5959 104.471 50.6044L105.591 52.1954C105.597 52.204 105.603 52.2129 105.608 52.2219L106.618 53.8708C106.624 53.8797 106.629 53.8888 106.634 53.8981L107.533 55.5977C107.538 55.6069 107.543 55.6162 107.547 55.6257L108.334 57.3669C108.338 57.3764 108.342 57.386 108.346 57.3957L109.018 59.1713C109.022 59.1813 109.025 59.1914 109.029 59.2015L109.583 61.0061C109.586 61.0159 109.589 61.0257 109.591 61.0356L110.031 62.8583C110.033 62.8685 110.035 62.8789 110.037 62.8893L110.359 64.7264C110.361 64.7368 110.362 64.7472 110.364 64.7577L110.567 66.5984C110.569 66.6087 110.569 66.6189 110.57 66.6292L110.659 68.4663C110.66 68.4767 110.66 68.4871 110.66 68.4975L110.635 70.3237C110.635 70.3343 110.634 70.3448 110.633 70.3553L110.494 72.1653C110.493 72.1757 110.492 72.186 110.491 72.1963L110.24 73.981C110.239 73.9914 110.237 74.0017 110.235 74.012L109.875 75.7641C109.873 75.7743 109.871 75.7844 109.868 75.7945L109.403 77.5085C109.401 77.5186 109.398 77.5286 109.394 77.5385L108.827 79.2073C108.826 79.2121 108.824 79.217 108.822 79.2218C108.82 79.2269 108.818 79.232 108.816 79.237L108.149 80.8551C108.145 80.8647 108.141 80.8741 108.137 80.8833L107.377 82.4453C107.372 82.4548 107.367 82.464 107.362 82.4731L106.513 83.9718C106.507 83.9811 106.502 83.9902 106.496 83.9991L105.559 85.4308C105.553 85.4394 105.547 85.4479 105.541 85.4562L104.526 86.8155C104.519 86.8242 104.512 86.8327 104.505 86.8409L103.413 88.1206C103.406 88.1283 103.399 88.1359 103.392 88.1432L102.232 89.3451C102.224 89.3529 102.216 89.3605 102.208 89.3678L100.982 90.4827C100.974 90.4897 100.966 90.4965 100.958 90.5031L99.6757 91.5293C99.6674 91.536 99.6589 91.5424 99.6502 91.5485L98.3144 92.4842C98.3057 92.4903 98.2969 92.4961 98.2878 92.5016L96.9074 93.3433C96.8983 93.3488 96.889 93.3541 96.8796 93.359L95.4598 94.1048C95.4505 94.1097 95.441 94.1143 95.4314 94.1186L93.9776 94.7684C93.9677 94.7728 93.9575 94.777 93.9473 94.7807L92.4667 95.3292C92.4569 95.3328 92.4469 95.3362 92.4369 95.3392L90.9367 95.7898C90.9311 95.7915 90.9255 95.7931 90.9199 95.7946C90.915 95.7959 90.9101 95.7971 90.9052 95.7982L89.3907 96.1475C89.3805 96.1499 89.3702 96.1519 89.3599 96.1536L87.84 96.4052C87.8292 96.407 87.8184 96.4084 87.8074 96.4095L86.284 96.5597C86.2734 96.5608 86.2628 96.5615 86.2522 96.5618L84.7359 96.6143C84.7251 96.6147 84.7143 96.6147 84.7036 96.6144L83.198 96.5691C83.1874 96.5688 83.1769 96.5682 83.1664 96.5672L81.6786 96.4278C81.6679 96.4268 81.6573 96.4255 81.6466 96.4238L80.1804 96.1903C80.1697 96.1886 80.159 96.1865 80.1484 96.1841L78.7125 95.8583C78.7023 95.856 78.6921 95.8533 78.682 95.8504L77.2801 95.4377C77.2696 95.4346 77.2592 95.4312 77.249 95.4274L75.8882 94.9279C75.8826 94.9258 75.8771 94.9237 75.8716 94.9214C75.8673 94.9197 75.863 94.9179 75.8588 94.916L74.541 94.335C74.5312 94.3307 74.5216 94.3261 74.5121 94.3212L73.2443 93.6623C73.2349 93.6574 73.2256 93.6522 73.2165 93.6467L72.0023 92.9136C71.9932 92.9081 71.9843 92.9023 71.9755 92.8962L70.8186 92.0926C70.8132 92.0889 70.8079 92.085 70.8027 92.0811C70.7994 92.0786 70.7962 92.0761 70.793 92.0736L69.6986 91.2048C69.6903 91.1982 69.6822 91.1913 69.6744 91.1842L68.6444 90.2539C68.6365 90.2467 68.6288 90.2393 68.6213 90.2316L67.6611 89.2452C67.6577 89.2417 67.6543 89.2381 67.651 89.2345C67.6473 89.2305 67.6436 89.2263 67.64 89.2221L66.7495 88.185C66.7425 88.1768 66.7357 88.1684 66.7293 88.1598L65.9139 87.0756C65.9075 87.0672 65.9014 87.0585 65.8956 87.0496L65.1571 85.9256C65.1513 85.9169 65.1459 85.9079 65.1406 85.8988L64.479 84.7386C64.4738 84.7294 64.4689 84.7201 64.4643 84.7107L63.8814 83.5197C63.8768 83.5103 63.8724 83.5008 63.8684 83.4911L63.366 82.2766C63.3638 82.2712 63.3617 82.2659 63.3596 82.2605C63.3579 82.2558 63.3563 82.2512 63.3547 82.2465L62.9345 81.0121C62.9323 81.0057 62.9302 80.9992 62.9283 80.9927C62.9273 80.9893 62.9263 80.9859 62.9254 80.9824L62.5856 79.7354C62.5828 79.7251 62.5804 79.7148 62.5782 79.7043L62.3207 78.4482C62.3187 78.438 62.3169 78.4277 62.3154 78.4174L62.1384 77.1576C62.1369 77.1472 62.1358 77.1368 62.135 77.1263L62.0384 75.8684C62.0376 75.8578 62.0372 75.8472 62.037 75.8365L62.0209 74.5877C62.0208 74.5771 62.021 74.5665 62.0215 74.5559L62.0841 73.3197C62.0846 73.3094 62.0855 73.2991 62.0866 73.2888L62.2243 72.0707C62.2255 72.0602 62.227 72.0498 62.2289 72.0394L62.4416 70.8412C62.4435 70.8307 62.4457 70.8202 62.4483 70.8098L62.7344 69.6406C62.7368 69.6306 62.7395 69.6207 62.7426 69.6109L63.0966 68.4725C63.0999 68.462 63.1035 68.4517 63.1074 68.4415L63.5312 67.3392C63.5349 67.3295 63.5389 67.32 63.5432 67.3105L64.0296 66.2481C64.034 66.2386 64.0386 66.2292 64.0436 66.22L64.5907 65.1991C64.5958 65.1897 64.6011 65.1804 64.6068 65.1713L65.2112 64.1994C65.2168 64.1903 65.2228 64.1813 65.229 64.1726L65.8888 63.2495C65.8949 63.2411 65.9012 63.2328 65.9077 63.2248L66.6158 62.3542C66.6228 62.3456 66.6301 62.3372 66.6377 62.329L67.3941 61.5164C67.4011 61.5088 67.4084 61.5014 67.4159 61.4943L68.2134 60.7377C68.2211 60.7304 68.2291 60.7233 68.2372 60.7165L69.0723 60.0197C69.0807 60.0127 69.0893 60.006 69.0981 59.9995L69.9671 59.366C69.9757 59.3598 69.9846 59.3538 69.9936 59.348L70.8912 58.7779C70.8988 58.7731 70.9064 58.7685 70.9142 58.7641L70.9186 58.7617L71.8412 58.2549C71.8509 58.2496 71.8608 58.2446 71.8708 58.2399L72.8149 57.8001C72.8246 57.7956 72.8344 57.7914 72.8443 57.7875L73.8045 57.4129C73.8144 57.409 73.8244 57.4055 73.8344 57.4023L74.8054 57.0928C74.8161 57.0894 74.8269 57.0863 74.8377 57.0836L75.8158 56.8429C75.8263 56.8403 75.8369 56.8381 75.8475 56.8362L76.8309 56.6606C76.8415 56.6587 76.8522 56.6572 76.8628 56.656L77.8427 56.5456C77.8533 56.5444 77.8639 56.5435 77.8746 56.543L78.8491 56.496C78.8603 56.4954 78.8714 56.4953 78.8826 56.4955L79.8482 56.5136C79.8643 56.5139 79.8804 56.5149 79.8965 56.5168L81.7829 56.7358C82.0572 56.7677 82.2538 57.0158 82.2219 57.2901C82.1901 57.5644 81.9419 57.761 81.6676 57.7292L79.8052 57.5129L78.8806 57.4956L77.9388 57.5411L76.9908 57.6479L76.0392 57.8178L75.0931 58.0506L74.1533 58.3502L73.2227 58.7133L72.3081 59.1394L71.4139 59.6305L70.5432 60.1836L69.7004 60.798L68.8901 61.4741L68.1155 62.209L67.3811 62.9981L66.6933 63.8437L66.0519 64.7411L65.4645 65.6857L64.9323 66.6786L64.459 67.7126L64.0467 68.7851L63.7021 69.8932L63.4234 71.0319L63.2162 72.1988L63.082 73.3857L63.021 74.5907L63.0367 75.8077L63.1309 77.0341L63.3035 78.2627L63.5547 79.4879L63.8861 80.7046L64.2962 81.9091L64.7865 83.0943L65.3555 84.2569L66.0015 85.3897L66.7226 86.4872L67.5188 87.5459L68.3885 88.5588L69.3267 89.5226L70.3329 90.4315L71.4022 91.2804L72.5329 92.0658L73.7196 92.7824L74.959 93.4264L76.2478 93.9946L77.5781 94.483L78.9492 94.8866L80.3537 95.2053L81.7881 95.4337L83.2439 95.5701L84.7174 95.6144L86.2017 95.563L87.693 95.4159L89.1812 95.1696L90.6645 94.8275L92.1342 94.386L93.5845 93.8487L95.0088 93.2121L96.4005 92.4811L97.7537 91.6561L99.0633 90.7386L100.321 89.7322L101.524 88.6387L102.662 87.4596L103.734 86.204L104.731 84.8702L105.651 83.4648L106.484 81.9937L107.231 80.4598L107.886 78.8706L108.442 77.2317L108.899 75.5477L109.252 73.8265L109.498 72.0728L109.635 70.2943L109.66 68.4994L109.572 66.6931L109.371 64.8834L109.055 63.0774L108.622 61.2851L108.077 59.5104L107.416 57.7644L106.642 56.0516L105.758 54.3798L104.764 52.7578L103.663 51.1926L102.459 49.6915L101.154 48.2614L99.7549 46.9078L98.2628 45.6396L96.6861 44.4604L95.0266 43.3792L93.2928 42.3993L91.4905 41.5263L89.6247 40.7655L87.7025 40.1223L85.7325 39.6001L83.7199 39.2027L81.6756 38.9318L79.6048 38.7927L77.516 38.7856L75.4182 38.9122L73.3186 39.1743L71.2276 39.5737L69.1539 40.1087L67.1046 40.7794L65.0885 41.5839L63.1147 42.5222L61.1917 43.5909L59.3284 44.7882L57.5336 46.1088L55.8127 47.5527L54.1761 49.1112L52.6313 50.7802L51.1849 52.5568L49.8441 54.4318L48.6145 56.4014L47.5065 58.4571L46.52 60.5917L45.6659 62.7977L44.9458 65.0683L44.3669 67.3929L43.9291 69.7623L43.6395 72.171L43.5001 74.6051L43.5124 77.0591L43.6784 79.5203L43.9998 81.978L44.4767 84.4272L45.1072 86.8531L45.8931 89.2469L46.831 91.598L47.9209 93.8991L49.1574 96.1379L50.5387 98.3049L52.0616 100.39L53.7188 102.386L55.5084 104.281L57.4218 106.068L59.4539 107.739L61.5972 109.286L63.8448 110.699L66.1878 111.974L68.6194 113.101L71.1308 114.078L73.7093 114.895L76.3496 115.552L79.038 116.038L81.7672 116.357L84.523 116.5L87.2983 116.468L90.081 116.255L92.8586 115.866L95.6222 115.295L98.3577 114.547L101.054 113.622L103.704 112.519L106.291 111.243L108.808 109.798L111.24 108.186L113.581 106.415L115.817 104.487L117.942 102.409L119.942 100.19L121.808 97.8345L123.534 95.3533L125.109 92.754L126.527 90.0431L127.78 87.2354L128.86 84.3398L129.765 81.365L130.483 78.3239L131.015 75.2269L131.355 72.0884L131.5 68.9179L131.445 65.7273L131.192 62.5329L130.738 59.3454L130.085 56.1779L129.229 53.0424L128.177 49.9531L126.929 46.9215L125.487 43.9631L123.855 41.0869L122.041 38.3078L120.047 35.638L117.882 33.088L115.551 30.6691L113.062 28.3935L110.422 26.2703L107.644 24.3102L104.737 22.5241L101.709 20.919L98.5729 19.5021L95.3411 18.2826L92.0225 17.2675L88.6406 16.464L81.6566 15.4953C81.3831 15.4574 81.1921 15.2049 81.23 14.9314Z" fill="#27272F"/>
            <path d="M85.5 33L89.1002 40.8466L97.3882 41.9828L91.3252 47.9684L92.8473 56.5172L85.5 52.37L78.1527 56.5172L79.6748 47.9684L73.6118 41.9828L81.8998 40.8466L85.5 33Z" fill="white"/>
            <path d="M66.7706 83.3971L71.7632 86.8272L77.3598 84.5101L75.6404 90.3183L79.5736 94.9249L73.5183 95.0845L70.3526 100.249L68.3296 94.5391L62.4399 93.1241L67.2449 89.4359L66.7706 83.3971Z" fill="#BD92F0"/>
            <path d="M96.2675 83.2742L101.339 86.7582L107.023 84.4047L105.277 90.3041L109.272 94.9832L103.121 95.1452L99.9057 100.391L97.851 94.5913L91.8687 93.154L96.7492 89.4078L96.2675 83.2742Z" fill="#D5BAF6"/>
            <path d="M64.3589 57.166L65.2309 61.8664L69.6473 63.6966L65.4464 65.9784L65.0705 70.7442L61.6023 67.454L56.9536 68.5693L59.011 64.254L56.5138 60.1775L61.2536 60.8007L64.3589 57.166Z" fill="#B07DED"/>
            <path d="M105.186 52.1263L111.486 56.4542L118.547 53.5306L116.378 60.859L121.34 66.6714L113.7 66.8727L109.706 73.3886L107.154 66.1846L99.7222 64.3993L105.785 59.7457L105.186 52.1263Z" fill="#EDE1FB"/>
        </g>
    </symbol>
    <symbol id="team_star"  viewBox="0 0 176 132" fill="none" xmlns="http://www.w3.org/2000/svg">
        <g>
            <path fill-rule="evenodd" clip-rule="evenodd" d="M106.365 46.5346L87.5 7L68.635 46.5346L25.2058 52.2594L56.9759 82.4179L49.0001 125.491L87.5 104.595L126 125.491L118.024 82.4179L149.794 52.2594L106.365 46.5346ZM147.586 52.9769L105.696 47.4551L87.5 9.32203L69.3038 47.4551L27.4142 52.9769L58.058 82.0663L50.3649 123.612L87.5 103.457L124.635 123.612L116.942 82.0663L147.586 52.9769Z" fill="#27272F"/>
            <path fill-rule="evenodd" clip-rule="evenodd" d="M100 67C100 71.7147 97.281 75.7944 93.3256 77.7565C101.227 80.0591 107 87.3553 107 96H105C105 86.6112 97.3888 79 88 79C78.6112 79 71 86.6112 71 96H69C69 87.3553 74.7732 80.0591 82.6744 77.7565C78.719 75.7944 76 71.7147 76 67C76 60.3726 81.3726 55 88 55C94.6274 55 100 60.3726 100 67ZM88 77C93.5228 77 98 72.5228 98 67C98 61.4772 93.5228 57 88 57C82.4772 57 78 61.4772 78 67C78 72.5228 82.4772 77 88 77Z" fill="white"/>
            <path d="M113 70.7459C113.636 69.7033 114.894 69.0185 116.207 69C118.297 69.0824 120.08 70.7265 119.997 72.7299C119.997 76.4704 116.866 78.4259 113.976 80.2313C113.646 80.4374 113.319 80.6415 113 80.8462C112.681 80.6415 112.354 80.4374 112.024 80.2313C109.134 78.426 106.003 76.4704 106.003 72.7299C105.919 70.7265 107.703 69.0824 109.793 69C111.106 69.0185 112.364 69.7033 113 70.7459Z" fill="white"/>
        </g>
    </symbol>
    <symbol id="menu_close" width="32" height="32" viewBox="0 0 32 32" xmlns="http://www.w3.org/2000/svg">
        <g>
            <path d="M16.3839 18.1516L26.6274 28.3952L28.3952 26.6274L18.1516 16.3839L28.3952 6.14035L26.6274 4.37258L16.3839 14.6161L5.76777 4L4 5.76777L14.6161 16.3839L4 27L5.76777 28.7678L16.3839 18.1516Z"/>
        </g>
    </symbol>
    <symbol id="form_close" viewBox="0 0 32 32" xmlns="http://www.w3.org/2000/svg">
        <g>
            <path d="M16.3839 18.1516L26.6274 28.3952L28.3952 26.6274L18.1516 16.3839L28.3952 6.14035L26.6274 4.37258L16.3839 14.6161L5.76777 4L4 5.76777L14.6161 16.3839L4 27L5.76777 28.7678L16.3839 18.1516Z"/>
        </g>
    </symbol>
</svg>
