<svg width="176" height="132" viewBox="0 0 176 132" fill="none" xmlns="http://www.w3.org/2000/svg">
<path d="M81.23 14.9314C81.268 14.6578 81.5204 14.4669 81.794 14.5048L88.8016 15.4768C88.8174 15.479 88.833 15.4819 88.8485 15.4856L92.2692 16.2982C92.2795 16.3007 92.2897 16.3035 92.2998 16.3066L95.649 17.331C95.6592 17.3341 95.6693 17.3376 95.6793 17.3414L98.9408 18.5722C98.9507 18.5759 98.9605 18.5799 98.9701 18.5843L102.135 20.0142C102.141 20.0167 102.146 20.0194 102.152 20.0221C102.156 20.024 102.16 20.026 102.163 20.0281L105.219 21.648C105.229 21.653 105.238 21.6582 105.247 21.6638L108.181 23.4665C108.186 23.4694 108.19 23.4723 108.195 23.4753C108.199 23.4782 108.203 23.481 108.208 23.484L111.011 25.4623C111.02 25.4683 111.028 25.4747 111.037 25.4812L113.701 27.6243C113.709 27.6309 113.717 27.6377 113.725 27.6448L116.237 29.9417C116.241 29.9452 116.245 29.9487 116.248 29.9522C116.252 29.956 116.256 29.9599 116.26 29.9638L118.613 32.4054C118.62 32.413 118.627 32.4208 118.634 32.4288L120.819 35.0026C120.826 35.0105 120.832 35.0187 120.839 35.027L122.852 37.722C122.858 37.7305 122.864 37.7392 122.87 37.748L124.701 40.5535C124.707 40.5622 124.712 40.571 124.717 40.5801L126.364 43.4833C126.369 43.4923 126.374 43.5016 126.379 43.5109L127.834 46.4974C127.839 46.5068 127.843 46.5164 127.847 46.526L129.108 49.5867C129.112 49.5964 129.115 49.6061 129.119 49.616L130.181 52.7346C130.184 52.7443 130.187 52.7542 130.19 52.7642L131.054 55.9298C131.056 55.9399 131.059 55.9501 131.061 55.9604L131.721 59.1586C131.722 59.1647 131.723 59.1708 131.724 59.1769C131.725 59.181 131.726 59.1851 131.726 59.1893L132.184 62.4074C132.185 62.4177 132.186 62.428 132.187 62.4383L132.443 65.6637C132.444 65.674 132.444 65.6843 132.444 65.6946L132.5 68.9164C132.5 68.9269 132.5 68.9374 132.499 68.9479L132.353 72.1497C132.352 72.1601 132.352 72.1704 132.35 72.1807L132.007 75.35C132.006 75.3564 132.006 75.3627 132.005 75.369C132.004 75.3729 132.004 75.3768 132.003 75.3807L131.466 78.5083C131.465 78.5186 131.463 78.5287 131.46 78.5388L130.734 81.6104C130.732 81.6206 130.729 81.6308 130.726 81.6408L129.812 84.6454C129.811 84.6508 129.809 84.6562 129.807 84.6615C129.806 84.6659 129.804 84.6703 129.802 84.6747L128.712 87.5996C128.708 87.6094 128.704 87.6191 128.7 87.6287L127.434 90.4649C127.43 90.4744 127.425 90.4837 127.42 90.4929L125.988 93.2314C125.983 93.2407 125.978 93.2498 125.973 93.2588L124.381 95.885C124.376 95.894 124.37 95.9028 124.364 95.9114L122.621 98.4182C122.615 98.4268 122.608 98.4352 122.602 98.4433L120.715 100.823C120.711 100.829 120.707 100.834 120.703 100.838C120.7 100.842 120.698 100.845 120.695 100.848L118.674 103.09C118.667 103.098 118.66 103.106 118.653 103.113L116.505 105.213C116.498 105.22 116.49 105.227 116.482 105.234L114.222 107.183C114.214 107.19 114.206 107.197 114.197 107.203L111.831 108.993C111.823 108.999 111.814 109.006 111.806 109.011L109.347 110.64C109.338 110.646 109.329 110.652 109.32 110.657L106.775 112.118C106.766 112.123 106.757 112.128 106.748 112.133L104.132 113.423C104.127 113.425 104.123 113.427 104.118 113.429C104.113 113.432 104.108 113.434 104.103 113.436L101.424 114.551C101.414 114.555 101.404 114.559 101.394 114.563L98.6673 115.498C98.6572 115.502 98.6471 115.505 98.6369 115.508L95.8707 116.264C95.8605 116.267 95.8502 116.269 95.8399 116.272L93.0451 116.849C93.0345 116.851 93.0239 116.853 93.0132 116.855L90.204 117.247C90.1937 117.249 90.1833 117.25 90.1729 117.251L87.3584 117.466C87.354 117.466 87.3495 117.467 87.345 117.467C87.3387 117.467 87.3324 117.467 87.3261 117.467L84.5187 117.5C84.5082 117.5 84.4976 117.5 84.487 117.499L81.6993 117.355C81.6886 117.354 81.678 117.353 81.6673 117.352L78.9065 117.03C78.9034 117.029 78.9004 117.029 78.8974 117.029C78.89 117.028 78.8827 117.026 78.8754 117.025L76.1556 116.533C76.145 116.531 76.1345 116.529 76.124 116.526L73.4526 115.862C73.4423 115.859 73.4322 115.856 73.4221 115.853L70.8133 115.026C70.8031 115.023 70.7931 115.019 70.7831 115.015L68.2422 114.027C68.2324 114.023 68.2228 114.019 68.2132 114.015L65.7528 112.874C65.743 112.87 65.7334 112.865 65.724 112.86L63.3529 111.569C63.3437 111.564 63.3347 111.559 63.3259 111.554L61.0514 110.124C61.0423 110.118 61.0335 110.112 61.0248 110.106L58.8559 108.54C58.8474 108.534 58.8391 108.528 58.831 108.521L56.7746 106.83C56.7665 106.824 56.7586 106.817 56.7509 106.81L54.8144 105.002C54.8067 104.994 54.7993 104.987 54.7921 104.979L52.9807 103.061C52.9772 103.057 52.9737 103.053 52.9703 103.049C52.9667 103.045 52.9631 103.041 52.9596 103.037L51.2823 101.017C51.2757 101.009 51.2693 101.001 51.2632 100.992L49.7219 98.882C49.7156 98.8734 49.7097 98.8647 49.704 98.8558L48.3057 96.6621C48.3001 96.6533 48.2947 96.6443 48.2897 96.6351L47.038 94.369C47.033 94.3599 47.0282 94.3507 47.0238 94.3413L45.9205 92.0118C45.916 92.0024 45.9119 91.9928 45.908 91.9831L44.9585 89.6029C44.9546 89.5933 44.9511 89.5835 44.9478 89.5736L44.1521 87.1501C44.1489 87.1401 44.1459 87.13 44.1433 87.1199L43.5049 84.6637C43.5023 84.6537 43.5 84.6436 43.498 84.6335L43.0153 82.1538C43.0133 82.1436 43.0116 82.1334 43.0103 82.1231L42.6848 79.6344C42.6835 79.624 42.6824 79.6136 42.6817 79.6032L42.5136 77.1108C42.513 77.1005 42.5126 77.0901 42.5125 77.0797L42.5 74.5946C42.5 74.5842 42.5002 74.5738 42.5008 74.5635L42.6421 72.0983C42.6427 72.0879 42.6436 72.0775 42.6448 72.0672L42.9381 69.6273C42.9393 69.6169 42.9409 69.6065 42.9428 69.5962L43.3863 67.1961C43.3881 67.1861 43.3903 67.1761 43.3928 67.1661L43.9793 64.8113C43.9818 64.8011 43.9847 64.791 43.9879 64.781L44.7174 62.4805C44.7206 62.4706 44.724 62.4608 44.7277 62.4512L45.5932 60.2158C45.597 60.2059 45.6012 60.1962 45.6056 60.1866L46.6052 58.0237C46.6094 58.0144 46.614 58.0052 46.6189 57.9962L47.7418 55.9129C47.7469 55.9035 47.7522 55.8943 47.7578 55.8853L49.0041 53.8889C49.0097 53.8801 49.0155 53.8714 49.0216 53.8629L50.3805 51.9624C50.3866 51.9539 50.3929 51.9456 50.3995 51.9375L51.8658 50.1366C51.8724 50.1284 51.8794 50.1204 51.8866 50.1126L53.453 48.4203C53.4601 48.4126 53.4675 48.4051 53.4751 48.3978L55.1345 46.8177C55.1421 46.8105 55.1499 46.8035 55.1579 46.7968L56.9031 45.3325C56.9112 45.3257 56.9196 45.3191 56.9282 45.3128L58.7485 43.9734C58.7569 43.9672 58.7656 43.9612 58.7745 43.9555L60.6645 42.741C60.6692 42.738 60.674 42.7351 60.6787 42.7322C60.6831 42.7296 60.6875 42.7271 60.6919 42.7246L62.6428 41.6404C62.652 41.6353 62.6614 41.6304 62.671 41.6259L64.6737 40.6738C64.6783 40.6717 64.6829 40.6696 64.6875 40.6675C64.6927 40.6653 64.6978 40.6631 64.703 40.661L66.7486 39.8447C66.7585 39.8408 66.7684 39.8372 66.7785 39.8339L68.858 39.1534C68.8681 39.15 68.8783 39.1471 68.8886 39.1444L70.9932 38.6014C71.0035 38.5988 71.0139 38.5964 71.0243 38.5944L73.1468 38.189C73.1574 38.187 73.168 38.1853 73.1787 38.184L75.3102 37.9179C75.3207 37.9166 75.3313 37.9156 75.342 37.915L77.4716 37.7864C77.4822 37.7858 77.4928 37.7855 77.5034 37.7855L79.6242 37.7928C79.6348 37.7928 79.6454 37.7932 79.6559 37.7939L81.7588 37.9351C81.7661 37.9356 81.7735 37.9362 81.7808 37.9371C81.7842 37.9374 81.7876 37.9378 81.791 37.9383L83.867 38.2134C83.8774 38.2148 83.8878 38.2165 83.8981 38.2186L85.942 38.6222C85.9525 38.6243 85.9629 38.6267 85.9732 38.6294L87.9741 39.1597C87.9844 39.1624 87.9946 39.1655 88.0047 39.1689L89.9573 39.8223C89.9674 39.8257 89.9775 39.8294 89.9874 39.8334L91.8828 40.6063C91.8927 40.6103 91.9024 40.6147 91.912 40.6193L93.743 41.5062C93.7525 41.5108 93.7619 41.5157 93.7711 41.5209L95.5324 42.5164C95.5415 42.5216 95.5505 42.527 95.5593 42.5328L97.2455 43.6314C97.2545 43.6373 97.2634 43.6435 97.272 43.6499L98.8742 44.8482C98.8825 44.8544 98.8906 44.8608 98.8985 44.8676L100.415 46.1563C100.423 46.1633 100.431 46.1705 100.439 46.178L101.86 47.5536C101.868 47.5607 101.875 47.5681 101.882 47.5758L103.209 49.0292C103.216 49.0371 103.223 49.0452 103.23 49.0536L104.453 50.5794C104.459 50.5875 104.465 50.5959 104.471 50.6044L105.591 52.1954C105.597 52.204 105.603 52.2129 105.608 52.2219L106.618 53.8708C106.624 53.8797 106.629 53.8888 106.634 53.8981L107.533 55.5977C107.538 55.6069 107.543 55.6162 107.547 55.6257L108.334 57.3669C108.338 57.3764 108.342 57.386 108.346 57.3957L109.018 59.1713C109.022 59.1813 109.025 59.1914 109.029 59.2015L109.583 61.0061C109.586 61.0159 109.589 61.0257 109.591 61.0356L110.031 62.8583C110.033 62.8685 110.035 62.8789 110.037 62.8893L110.359 64.7264C110.361 64.7368 110.362 64.7472 110.364 64.7577L110.567 66.5984C110.569 66.6087 110.569 66.6189 110.57 66.6292L110.659 68.4663C110.66 68.4767 110.66 68.4871 110.66 68.4975L110.635 70.3237C110.635 70.3343 110.634 70.3448 110.633 70.3553L110.494 72.1653C110.493 72.1757 110.492 72.186 110.491 72.1963L110.24 73.981C110.239 73.9914 110.237 74.0017 110.235 74.012L109.875 75.7641C109.873 75.7743 109.871 75.7844 109.868 75.7945L109.403 77.5085C109.401 77.5186 109.398 77.5286 109.394 77.5385L108.827 79.2073C108.826 79.2121 108.824 79.217 108.822 79.2218C108.82 79.2269 108.818 79.232 108.816 79.237L108.149 80.8551C108.145 80.8647 108.141 80.8741 108.137 80.8833L107.377 82.4453C107.372 82.4548 107.367 82.464 107.362 82.4731L106.513 83.9718C106.507 83.9811 106.502 83.9902 106.496 83.9991L105.559 85.4308C105.553 85.4394 105.547 85.4479 105.541 85.4562L104.526 86.8155C104.519 86.8242 104.512 86.8327 104.505 86.8409L103.413 88.1206C103.406 88.1283 103.399 88.1359 103.392 88.1432L102.232 89.3451C102.224 89.3529 102.216 89.3605 102.208 89.3678L100.982 90.4827C100.974 90.4897 100.966 90.4965 100.958 90.5031L99.6757 91.5293C99.6674 91.536 99.6589 91.5424 99.6502 91.5485L98.3144 92.4842C98.3057 92.4903 98.2969 92.4961 98.2878 92.5016L96.9074 93.3433C96.8983 93.3488 96.889 93.3541 96.8796 93.359L95.4598 94.1048C95.4505 94.1097 95.441 94.1143 95.4314 94.1186L93.9776 94.7684C93.9677 94.7728 93.9575 94.777 93.9473 94.7807L92.4667 95.3292C92.4569 95.3328 92.4469 95.3362 92.4369 95.3392L90.9367 95.7898C90.9311 95.7915 90.9255 95.7931 90.9199 95.7946C90.915 95.7959 90.9101 95.7971 90.9052 95.7982L89.3907 96.1475C89.3805 96.1499 89.3702 96.1519 89.3599 96.1536L87.84 96.4052C87.8292 96.407 87.8184 96.4084 87.8074 96.4095L86.284 96.5597C86.2734 96.5608 86.2628 96.5615 86.2522 96.5618L84.7359 96.6143C84.7251 96.6147 84.7143 96.6147 84.7036 96.6144L83.198 96.5691C83.1874 96.5688 83.1769 96.5682 83.1664 96.5672L81.6786 96.4278C81.6679 96.4268 81.6573 96.4255 81.6466 96.4238L80.1804 96.1903C80.1697 96.1886 80.159 96.1865 80.1484 96.1841L78.7125 95.8583C78.7023 95.856 78.6921 95.8533 78.682 95.8504L77.2801 95.4377C77.2696 95.4346 77.2592 95.4312 77.249 95.4274L75.8882 94.9279C75.8826 94.9258 75.8771 94.9237 75.8716 94.9214C75.8673 94.9197 75.863 94.9179 75.8588 94.916L74.541 94.335C74.5312 94.3307 74.5216 94.3261 74.5121 94.3212L73.2443 93.6623C73.2349 93.6574 73.2256 93.6522 73.2165 93.6467L72.0023 92.9136C71.9932 92.9081 71.9843 92.9023 71.9755 92.8962L70.8186 92.0926C70.8132 92.0889 70.8079 92.085 70.8027 92.0811C70.7994 92.0786 70.7962 92.0761 70.793 92.0736L69.6986 91.2048C69.6903 91.1982 69.6822 91.1913 69.6744 91.1842L68.6444 90.2539C68.6365 90.2467 68.6288 90.2393 68.6213 90.2316L67.6611 89.2452C67.6577 89.2417 67.6543 89.2381 67.651 89.2345C67.6473 89.2305 67.6436 89.2263 67.64 89.2221L66.7495 88.185C66.7425 88.1768 66.7357 88.1684 66.7293 88.1598L65.9139 87.0756C65.9075 87.0672 65.9014 87.0585 65.8956 87.0496L65.1571 85.9256C65.1513 85.9169 65.1459 85.9079 65.1406 85.8988L64.479 84.7386C64.4738 84.7294 64.4689 84.7201 64.4643 84.7107L63.8814 83.5197C63.8768 83.5103 63.8724 83.5008 63.8684 83.4911L63.366 82.2766C63.3638 82.2712 63.3617 82.2659 63.3596 82.2605C63.3579 82.2558 63.3563 82.2512 63.3547 82.2465L62.9345 81.0121C62.9323 81.0057 62.9302 80.9992 62.9283 80.9927C62.9273 80.9893 62.9263 80.9859 62.9254 80.9824L62.5856 79.7354C62.5828 79.7251 62.5804 79.7148 62.5782 79.7043L62.3207 78.4482C62.3187 78.438 62.3169 78.4277 62.3154 78.4174L62.1384 77.1576C62.1369 77.1472 62.1358 77.1368 62.135 77.1263L62.0384 75.8684C62.0376 75.8578 62.0372 75.8472 62.037 75.8365L62.0209 74.5877C62.0208 74.5771 62.021 74.5665 62.0215 74.5559L62.0841 73.3197C62.0846 73.3094 62.0855 73.2991 62.0866 73.2888L62.2243 72.0707C62.2255 72.0602 62.227 72.0498 62.2289 72.0394L62.4416 70.8412C62.4435 70.8307 62.4457 70.8202 62.4483 70.8098L62.7344 69.6406C62.7368 69.6306 62.7395 69.6207 62.7426 69.6109L63.0966 68.4725C63.0999 68.462 63.1035 68.4517 63.1074 68.4415L63.5312 67.3392C63.5349 67.3295 63.5389 67.32 63.5432 67.3105L64.0296 66.2481C64.034 66.2386 64.0386 66.2292 64.0436 66.22L64.5907 65.1991C64.5958 65.1897 64.6011 65.1804 64.6068 65.1713L65.2112 64.1994C65.2168 64.1903 65.2228 64.1813 65.229 64.1726L65.8888 63.2495C65.8949 63.2411 65.9012 63.2328 65.9077 63.2248L66.6158 62.3542C66.6228 62.3456 66.6301 62.3372 66.6377 62.329L67.3941 61.5164C67.4011 61.5088 67.4084 61.5014 67.4159 61.4943L68.2134 60.7377C68.2211 60.7304 68.2291 60.7233 68.2372 60.7165L69.0723 60.0197C69.0807 60.0127 69.0893 60.006 69.0981 59.9995L69.9671 59.366C69.9757 59.3598 69.9846 59.3538 69.9936 59.348L70.8912 58.7779C70.8988 58.7731 70.9064 58.7685 70.9142 58.7641L70.9186 58.7617L71.8412 58.2549C71.8509 58.2496 71.8608 58.2446 71.8708 58.2399L72.8149 57.8001C72.8246 57.7956 72.8344 57.7914 72.8443 57.7875L73.8045 57.4129C73.8144 57.409 73.8244 57.4055 73.8344 57.4023L74.8054 57.0928C74.8161 57.0894 74.8269 57.0863 74.8377 57.0836L75.8158 56.8429C75.8263 56.8403 75.8369 56.8381 75.8475 56.8362L76.8309 56.6606C76.8415 56.6587 76.8522 56.6572 76.8628 56.656L77.8427 56.5456C77.8533 56.5444 77.8639 56.5435 77.8746 56.543L78.8491 56.496C78.8603 56.4954 78.8714 56.4953 78.8826 56.4955L79.8482 56.5136C79.8643 56.5139 79.8804 56.5149 79.8965 56.5168L81.7829 56.7358C82.0572 56.7677 82.2538 57.0158 82.2219 57.2901C82.1901 57.5644 81.9419 57.761 81.6676 57.7292L79.8052 57.5129L78.8806 57.4956L77.9388 57.5411L76.9908 57.6479L76.0392 57.8178L75.0931 58.0506L74.1533 58.3502L73.2227 58.7133L72.3081 59.1394L71.4139 59.6305L70.5432 60.1836L69.7004 60.798L68.8901 61.4741L68.1155 62.209L67.3811 62.9981L66.6933 63.8437L66.0519 64.7411L65.4645 65.6857L64.9323 66.6786L64.459 67.7126L64.0467 68.7851L63.7021 69.8932L63.4234 71.0319L63.2162 72.1988L63.082 73.3857L63.021 74.5907L63.0367 75.8077L63.1309 77.0341L63.3035 78.2627L63.5547 79.4879L63.8861 80.7046L64.2962 81.9091L64.7865 83.0943L65.3555 84.2569L66.0015 85.3897L66.7226 86.4872L67.5188 87.5459L68.3885 88.5588L69.3267 89.5226L70.3329 90.4315L71.4022 91.2804L72.5329 92.0658L73.7196 92.7824L74.959 93.4264L76.2478 93.9946L77.5781 94.483L78.9492 94.8866L80.3537 95.2053L81.7881 95.4337L83.2439 95.5701L84.7174 95.6144L86.2017 95.563L87.693 95.4159L89.1812 95.1696L90.6645 94.8275L92.1342 94.386L93.5845 93.8487L95.0088 93.2121L96.4005 92.4811L97.7537 91.6561L99.0633 90.7386L100.321 89.7322L101.524 88.6387L102.662 87.4596L103.734 86.204L104.731 84.8702L105.651 83.4648L106.484 81.9937L107.231 80.4598L107.886 78.8706L108.442 77.2317L108.899 75.5477L109.252 73.8265L109.498 72.0728L109.635 70.2943L109.66 68.4994L109.572 66.6931L109.371 64.8834L109.055 63.0774L108.622 61.2851L108.077 59.5104L107.416 57.7644L106.642 56.0516L105.758 54.3798L104.764 52.7578L103.663 51.1926L102.459 49.6915L101.154 48.2614L99.7549 46.9078L98.2628 45.6396L96.6861 44.4604L95.0266 43.3792L93.2928 42.3993L91.4905 41.5263L89.6247 40.7655L87.7025 40.1223L85.7325 39.6001L83.7199 39.2027L81.6756 38.9318L79.6048 38.7927L77.516 38.7856L75.4182 38.9122L73.3186 39.1743L71.2276 39.5737L69.1539 40.1087L67.1046 40.7794L65.0885 41.5839L63.1147 42.5222L61.1917 43.5909L59.3284 44.7882L57.5336 46.1088L55.8127 47.5527L54.1761 49.1112L52.6313 50.7802L51.1849 52.5568L49.8441 54.4318L48.6145 56.4014L47.5065 58.4571L46.52 60.5917L45.6659 62.7977L44.9458 65.0683L44.3669 67.3929L43.9291 69.7623L43.6395 72.171L43.5001 74.6051L43.5124 77.0591L43.6784 79.5203L43.9998 81.978L44.4767 84.4272L45.1072 86.8531L45.8931 89.2469L46.831 91.598L47.9209 93.8991L49.1574 96.1379L50.5387 98.3049L52.0616 100.39L53.7188 102.386L55.5084 104.281L57.4218 106.068L59.4539 107.739L61.5972 109.286L63.8448 110.699L66.1878 111.974L68.6194 113.101L71.1308 114.078L73.7093 114.895L76.3496 115.552L79.038 116.038L81.7672 116.357L84.523 116.5L87.2983 116.468L90.081 116.255L92.8586 115.866L95.6222 115.295L98.3577 114.547L101.054 113.622L103.704 112.519L106.291 111.243L108.808 109.798L111.24 108.186L113.581 106.415L115.817 104.487L117.942 102.409L119.942 100.19L121.808 97.8345L123.534 95.3533L125.109 92.754L126.527 90.0431L127.78 87.2354L128.86 84.3398L129.765 81.365L130.483 78.3239L131.015 75.2269L131.355 72.0884L131.5 68.9179L131.445 65.7273L131.192 62.5329L130.738 59.3454L130.085 56.1779L129.229 53.0424L128.177 49.9531L126.929 46.9215L125.487 43.9631L123.855 41.0869L122.041 38.3078L120.047 35.638L117.882 33.088L115.551 30.6691L113.062 28.3935L110.422 26.2703L107.644 24.3102L104.737 22.5241L101.709 20.919L98.5729 19.5021L95.3411 18.2826L92.0225 17.2675L88.6406 16.464L81.6566 15.4953C81.3831 15.4574 81.1921 15.2049 81.23 14.9314Z" fill="#27272F"/>
<path d="M85.5 33L89.1002 40.8466L97.3882 41.9828L91.3252 47.9684L92.8473 56.5172L85.5 52.37L78.1527 56.5172L79.6748 47.9684L73.6118 41.9828L81.8998 40.8466L85.5 33Z" fill="white"/>
<path d="M66.7706 83.3971L71.7632 86.8272L77.3598 84.5101L75.6404 90.3183L79.5736 94.9249L73.5183 95.0845L70.3526 100.249L68.3296 94.5391L62.4399 93.1241L67.2449 89.4359L66.7706 83.3971Z" fill="#BD92F0"/>
<path d="M96.2675 83.2742L101.339 86.7582L107.023 84.4047L105.277 90.3041L109.272 94.9832L103.121 95.1452L99.9057 100.391L97.851 94.5913L91.8687 93.154L96.7492 89.4078L96.2675 83.2742Z" fill="#D5BAF6"/>
<path d="M64.3589 57.166L65.2309 61.8664L69.6473 63.6966L65.4464 65.9784L65.0705 70.7442L61.6023 67.454L56.9536 68.5693L59.011 64.254L56.5138 60.1775L61.2536 60.8007L64.3589 57.166Z" fill="#B07DED"/>
<path d="M105.186 52.1263L111.486 56.4542L118.547 53.5306L116.378 60.859L121.34 66.6714L113.7 66.8727L109.706 73.3886L107.154 66.1846L99.7222 64.3993L105.785 59.7457L105.186 52.1263Z" fill="#EDE1FB"/>
</svg>
