<svg width="176" height="132" viewBox="0 0 176 132" fill="none" xmlns="http://www.w3.org/2000/svg">
<path fill-rule="evenodd" clip-rule="evenodd" d="M106.365 46.5346L87.5 7L68.635 46.5346L25.2058 52.2594L56.9759 82.4179L49.0001 125.491L87.5 104.595L126 125.491L118.024 82.4179L149.794 52.2594L106.365 46.5346ZM147.586 52.9769L105.696 47.4551L87.5 9.32203L69.3038 47.4551L27.4142 52.9769L58.058 82.0663L50.3649 123.612L87.5 103.457L124.635 123.612L116.942 82.0663L147.586 52.9769Z" fill="#27272F"/>
<path fill-rule="evenodd" clip-rule="evenodd" d="M100 67C100 71.7147 97.281 75.7944 93.3256 77.7565C101.227 80.0591 107 87.3553 107 96H105C105 86.6112 97.3888 79 88 79C78.6112 79 71 86.6112 71 96H69C69 87.3553 74.7732 80.0591 82.6744 77.7565C78.719 75.7944 76 71.7147 76 67C76 60.3726 81.3726 55 88 55C94.6274 55 100 60.3726 100 67ZM88 77C93.5228 77 98 72.5228 98 67C98 61.4772 93.5228 57 88 57C82.4772 57 78 61.4772 78 67C78 72.5228 82.4772 77 88 77Z" fill="white"/>
<path d="M113 70.7459C113.636 69.7033 114.894 69.0185 116.207 69C118.297 69.0824 120.08 70.7265 119.997 72.7299C119.997 76.4704 116.866 78.4259 113.976 80.2313C113.646 80.4374 113.319 80.6415 113 80.8462C112.681 80.6415 112.354 80.4374 112.024 80.2313C109.134 78.426 106.003 76.4704 106.003 72.7299C105.919 70.7265 107.703 69.0824 109.793 69C111.106 69.0185 112.364 69.7033 113 70.7459Z" fill="white"/>
</svg>
