<svg width="24" height="24" viewBox="0 0 24 24" fill="none" xmlns="http://www.w3.org/2000/svg">
<path fill-rule="evenodd" clip-rule="evenodd" d="M22 4.5C22 6.98528 19.9853 9 17.5 9C15.0147 9 13 6.98528 13 4.5C13 2.01472 15.0147 0 17.5 0C19.9853 0 22 2.01472 22 4.5ZM20 4.5C20 5.88071 18.8807 7 17.5 7C16.1193 7 15 5.88071 15 4.5C15 3.11929 16.1193 2 17.5 2C18.8807 2 20 3.11929 20 4.5Z" fill="black"/>
<path fill-rule="evenodd" clip-rule="evenodd" d="M7.5 13C9.98528 13 12 10.9853 12 8.5C12 6.01472 9.98528 4 7.5 4C5.01472 4 3 6.01472 3 8.5C3 10.9853 5.01472 13 7.5 13ZM7.5 11C8.88071 11 10 9.88071 10 8.5C10 7.11929 8.88071 6 7.5 6C6.11929 6 5 7.11929 5 8.5C5 9.88071 6.11929 11 7.5 11Z" fill="black"/>
<path d="M15 13H19C20.6569 13 22 14.3431 22 16V20H24V16C24 13.2386 21.7614 11 19 11H15V13Z" fill="black"/>
<path d="M5 15C2.23858 15 0 17.2386 0 20V24H2V20C2 18.3431 3.34315 17 5 17H10C11.6569 17 13 18.3431 13 20V24H15V20C15 17.2386 12.7614 15 10 15H5Z" fill="black"/>
</svg>
